<svg width="61" height="50" viewBox="0 0 61 50" fill="none" xmlns="http://www.w3.org/2000/svg">
<path d="M57.7714 34.295L59.4427 28.0985C59.4826 27.9509 59.4824 27.7957 59.442 27.6483C59.1166 26.5779 58.653 25.5523 58.0622 24.5963C56.7265 22.4529 54.9818 21.3512 53.0172 21.3512H48.1652V1.36902C48.1652 1.18842 48.1286 1.00959 48.0575 0.842859C47.9864 0.676125 47.8821 0.524772 47.7508 0.397521C47.6195 0.27027 47.4636 0.169636 47.2923 0.101417C47.1209 0.0331983 46.9374 -0.00125735 46.7524 3.5055e-05H45.443C45.2588 -0.000889697 45.0763 0.0339369 44.906 0.102489C44.7358 0.17104 44.5812 0.271949 44.4512 0.399342C44.3213 0.526735 44.2187 0.67807 44.1492 0.844541C44.0798 1.01101 44.045 1.1893 44.0468 1.36902V21.3512H34.1386C33.3579 21.3512 32.7212 21.9093 32.7212 22.6712V23.695L30.1769 19.7628C30.4669 19.1945 30.7223 18.6099 30.9416 18.0122C31.1205 17.5048 31.4931 16.4492 30.635 16.0233C29.7768 15.5974 29.1236 16.5145 28.8093 16.9545C28.3785 17.5762 27.9903 18.2249 27.647 18.8965C27.2936 19.5629 26.9854 20.2513 26.7245 20.9572C26.5458 21.4645 26.1733 22.5201 27.0304 22.9457C27.1674 23.0164 27.3197 23.0541 27.4746 23.0556C28.1133 23.0556 28.5993 22.3759 28.857 22.0153C28.9627 21.8674 29.0727 21.7013 29.1859 21.5241L32.7212 26.9876V28.5101H28.5815L25.6837 22.7546C25.568 22.5218 25.3875 22.3256 25.1628 22.1885C24.938 22.0513 24.6782 21.9788 24.4132 21.9791H18.178V17.2328C18.178 14.7903 17.4487 12.7458 16.1474 11.4756C15.1435 10.497 13.8143 10.6359 13.6635 10.6549C13.4488 10.6834 13.2525 10.788 13.1119 10.9489C12.9713 11.1097 12.8963 11.3154 12.9013 11.5268V21.9791H6.53349C6.26056 21.9809 5.99391 22.0592 5.76525 22.2046C5.53658 22.35 5.35554 22.5565 5.24365 22.7994L0.125367 33.8711C0.0194436 34.1003 -0.0204821 34.3533 0.00988055 34.603C0.0402432 34.8526 0.139746 35.0895 0.297697 35.2882C0.455648 35.4868 0.666076 35.6397 0.906369 35.7303C1.14666 35.821 1.40773 35.8461 1.66153 35.8029L3.7134 35.4503L4.78998 35.885C4.61153 36.9877 4.61219 38.1108 4.79191 39.2133L3.51482 39.73C3.40552 39.7742 3.30622 39.839 3.22259 39.9207C3.13896 40.0024 3.07264 40.0994 3.02741 40.2061C2.98219 40.3128 2.95895 40.4271 2.95902 40.5426C2.95909 40.6581 2.98247 40.7724 3.02782 40.879L4.33516 43.9549C4.38048 44.0615 4.4469 44.1584 4.5306 44.24C4.61431 44.3217 4.71368 44.3864 4.82302 44.4305C4.93236 44.4746 5.04954 44.4973 5.16787 44.4973C5.28619 44.4972 5.40335 44.4744 5.51264 44.4301L6.78922 43.9133C7.46479 44.814 8.27884 45.6076 9.2026 46.2658L8.67403 47.5126C8.62882 47.6193 8.60561 47.7337 8.60572 47.8493C8.60583 47.9648 8.62926 48.0791 8.67468 48.1858C8.7201 48.2924 8.78661 48.3893 8.87041 48.4709C8.95422 48.5525 9.05367 48.6171 9.16309 48.6612L12.3163 49.9333C12.537 50.0224 12.7851 50.0222 13.0057 49.9329C13.2264 49.8435 13.4017 49.6723 13.493 49.4568L14.0206 48.2113C15.1508 48.3824 16.3012 48.382 17.4312 48.2102L17.9603 49.4547C18.0518 49.67 18.2273 49.8411 18.448 49.9302C18.6688 50.0193 18.9168 50.0192 19.1375 49.9299L22.2896 48.6541C22.3989 48.6099 22.4982 48.5451 22.5819 48.4634C22.6655 48.3817 22.7318 48.2847 22.777 48.178C22.8223 48.0713 22.8455 47.957 22.8454 47.8415C22.8454 47.726 22.822 47.6117 22.7766 47.5051L22.2474 46.2607C23.1707 45.6012 23.9838 44.8064 24.658 43.9043L25.9352 44.4192C26.0445 44.4633 26.1617 44.486 26.28 44.486C26.3983 44.4859 26.5155 44.4631 26.6248 44.4189C26.7341 44.3747 26.8334 44.3099 26.917 44.2282C27.0006 44.1465 27.0669 44.0495 27.1122 43.9428L28.4163 40.8665C28.4615 40.7598 28.4848 40.6454 28.4847 40.53C28.4847 40.4145 28.4613 40.3002 28.4159 40.1935C28.3706 40.0868 28.3042 39.9899 28.2204 39.9083C28.1367 39.8267 28.0373 39.762 27.928 39.7179L26.6506 39.203C26.8258 38.0999 26.8253 36.9769 26.6491 35.874L27.6768 35.4581L29.7501 35.8034C30.0072 35.8468 30.2716 35.8197 30.5139 35.7252C30.7561 35.6307 30.9668 35.4725 31.1225 35.2682C31.2792 35.0618 31.3748 34.8173 31.3989 34.5615C31.4229 34.3056 31.3744 34.0483 31.2588 33.8175L30.6173 32.5291H32.7212V34.5999C32.7212 35.3618 33.3579 35.9202 34.1386 35.9202H43.8554C42.9202 37.4273 42.4167 39.0212 42.4167 40.7492C42.4111 42.2255 42.782 43.68 43.4961 44.9815C44.2103 46.283 45.2451 47.3907 46.5073 48.2045C47.7695 49.0184 49.2194 49.5129 50.7263 49.6435C52.2332 49.7741 53.7498 49.5367 55.1392 48.9526C56.5286 48.3686 57.7472 47.4563 58.6852 46.2979C59.6232 45.1396 60.251 43.7717 60.5121 42.3175C60.7731 40.8633 60.6593 39.3685 60.1807 37.968C59.7021 36.5675 58.8739 35.3052 57.7707 34.295H57.7714ZM45.8486 1.75836H46.3634V21.3512H45.8486V1.75836ZM14.7031 12.5602C14.7031 12.6019 14.8361 12.654 14.9027 12.719C15.4592 13.2629 16.3762 14.5709 16.3762 17.2328V21.9791H14.7031V12.5602ZM25.792 42.459L24.6688 42.0056C24.472 41.9262 24.2527 41.9173 24.0498 41.9807C23.847 42.044 23.6737 42.1755 23.5607 42.3517C22.8232 43.499 21.8304 44.4695 20.6559 45.1911C20.4754 45.3015 20.3409 45.4708 20.2762 45.6688C20.2115 45.8668 20.2207 46.0809 20.3024 46.2728L20.7676 47.3669L19.28 47.9698L18.8147 46.8755C18.7331 46.6835 18.5844 46.5259 18.3951 46.4307C18.2057 46.3356 17.9879 46.309 17.7804 46.3556C16.4274 46.6569 15.0223 46.6574 13.6692 46.3571C13.4616 46.3111 13.2441 46.3382 13.0551 46.4335C12.866 46.5289 12.7176 46.6864 12.6361 46.8782L12.172 47.9733L10.6836 47.3728L11.1479 46.277C11.2292 46.0851 11.2384 45.8713 11.1736 45.6735C11.1089 45.4757 10.9745 45.3066 10.7942 45.1962C9.61923 44.4755 8.6252 43.5063 7.88561 42.3603C7.77248 42.1842 7.59905 42.0529 7.39612 41.9897C7.19319 41.9265 6.97387 41.9355 6.77712 42.0152L5.65459 42.4697L5.03773 41.0175L6.16167 40.5627C6.36011 40.4824 6.52261 40.3355 6.61986 40.1486C6.71711 39.9616 6.74271 39.7469 6.69205 39.5432C6.68162 39.5015 6.67261 39.4603 6.66322 39.4169C6.38184 38.1388 6.3916 36.816 6.69179 35.542C6.73908 35.3396 6.71141 35.1273 6.61367 34.9428C6.51593 34.7584 6.35444 34.6136 6.15781 34.5342L5.03464 34.0808L5.65035 32.6281L6.77519 33.0817C6.97201 33.1612 7.19132 33.17 7.39418 33.1066C7.59704 33.0433 7.77033 32.9118 7.8833 32.7356C8.61995 31.5886 9.61212 30.6184 10.786 29.8972C10.9664 29.7867 11.1009 29.6175 11.1656 29.4195C11.2303 29.2215 11.221 29.0075 11.1394 28.8155L10.6736 27.7202L12.1614 27.1174L12.6271 28.2128C12.7087 28.4048 12.8574 28.5623 13.0467 28.6575C13.2361 28.7527 13.4539 28.7793 13.6614 28.7326C15.0142 28.4314 16.4191 28.4314 17.7719 28.7326C17.9794 28.7792 18.1972 28.7524 18.3865 28.657C18.5757 28.5617 18.7242 28.4039 18.8055 28.2118L19.2705 27.1145L20.7585 27.7153L20.2937 28.8118C20.2124 29.0037 20.2033 29.2176 20.2681 29.4155C20.3329 29.6133 20.4674 29.7824 20.6478 29.8928C21.7843 30.5849 22.751 31.5125 23.4792 32.6098C23.5034 32.646 23.5277 32.683 23.5514 32.7205C23.6637 32.8988 23.8374 33.0321 24.0413 33.0965C24.2453 33.161 24.4661 33.1524 24.6642 33.0722L25.7868 32.6177L26.4046 34.0693L25.2818 34.5236C25.085 34.6032 24.9235 34.7483 24.826 34.9331C24.7284 35.1179 24.7011 35.3305 24.749 35.5331C25.058 36.8536 25.0587 38.225 24.751 39.5457C24.7038 39.7482 24.7315 39.9605 24.8293 40.145C24.927 40.3294 25.0886 40.4742 25.2853 40.5535L26.4079 41.0067L25.792 42.459ZM28.2253 33.7659L27.1056 31.1328C27.014 30.9174 26.8386 30.7463 26.6178 30.6572C26.397 30.5681 26.1489 30.5683 25.9282 30.6576L24.6527 31.174C23.9798 30.2711 23.1654 29.4773 22.2393 28.8219L22.767 27.5759C22.8583 27.3605 22.8581 27.1185 22.7666 26.9031C22.6751 26.6878 22.4997 26.5167 22.2789 26.4276L19.1258 25.1542C19.0165 25.11 18.8993 25.0873 18.781 25.0874C18.6627 25.0874 18.5455 25.1102 18.4362 25.1544C18.3269 25.1986 18.2276 25.2634 18.144 25.3451C18.0604 25.4268 17.9941 25.5238 17.9488 25.6304L17.4199 26.8784C16.2898 26.7066 15.1393 26.7066 14.0093 26.8784L13.4798 25.6326C13.3883 25.4172 13.2128 25.2462 12.992 25.1571C12.7713 25.068 12.5233 25.0681 12.3026 25.1575L9.151 26.4332C9.04171 26.4775 8.94242 26.5423 8.8588 26.624C8.77519 26.7056 8.70887 26.8026 8.66365 26.9093C8.61843 27.016 8.59518 27.1303 8.59524 27.2458C8.5953 27.3612 8.61866 27.4755 8.66399 27.5822L9.19347 28.828C8.27083 29.487 7.45837 30.2816 6.78497 31.1834L5.50607 30.6673C5.2853 30.5782 5.0373 30.5784 4.81663 30.6677C4.59596 30.757 4.42069 30.9282 4.32936 31.1437L3.22512 33.749L2.06823 33.9411L6.78291 23.7375H24.1728L29.3088 33.9394L28.2253 33.7659ZM29.7316 30.7708L29.4674 30.2684H32.7212V30.7708H29.7316ZM34.523 23.1095H53.0172C55.8817 23.1095 57.3242 26.963 57.6362 27.9209L56.2181 33.1628C54.673 32.2594 52.8895 31.82 51.0901 31.8993C49.2907 31.9785 47.5551 32.573 46.0996 33.6085C45.8473 33.7911 45.604 34.0363 45.3719 34.1619H34.523V23.1095ZM51.5329 47.9176C50.0853 47.9175 48.6702 47.4982 47.4669 46.7128C46.2636 45.9274 45.3262 44.8113 44.7733 43.5057C44.2204 42.2001 44.0769 40.7637 44.361 39.3785C44.6451 37.9932 45.344 36.7214 46.3692 35.724C47.6104 34.5163 49.2547 33.7838 51.0028 33.6597C52.751 33.5356 54.4866 34.0282 55.8938 35.0479C55.9919 35.1188 56.0879 35.1926 56.1858 35.2732C57.3482 36.2083 58.1864 37.4709 58.5857 38.8883C58.9851 40.3058 58.9262 41.8091 58.4171 43.1926C57.9079 44.5762 56.9734 45.7726 55.7412 46.6183C54.5091 47.464 53.0393 47.9178 51.5329 47.9176Z" fill="#3ECC29"/>
<path d="M19.6905 32.2867C19.5957 32.2173 19.4984 32.1505 19.4037 32.0898C18.5327 31.5298 17.5397 31.1763 16.5039 31.0573C15.468 30.9384 14.418 31.0573 13.4377 31.4047C12.4573 31.7521 11.5737 32.3183 10.8574 33.0581C10.1411 33.7978 9.61183 34.6908 9.31193 35.6656C9.01203 36.6405 8.94976 37.6702 9.13008 38.6727C9.3104 39.6752 9.72833 40.6227 10.3505 41.4396C10.9727 42.2565 11.7819 42.9201 12.7136 43.3776C13.6453 43.8351 14.6737 44.0738 15.7166 44.0745C15.8422 44.0745 15.9685 44.0711 16.0953 44.0642C17.4706 43.9892 18.7886 43.5018 19.8695 42.6686C20.9505 41.8354 21.7415 40.6969 22.1348 39.4087C22.5281 38.1204 22.5043 36.7451 22.0669 35.4705C21.6294 34.1958 20.7995 33.084 19.6905 32.2867ZM19.3674 40.724C18.9405 41.1927 18.4225 41.574 17.8436 41.846C17.2646 42.118 16.6361 42.2752 15.9945 42.3085C15.9017 42.3137 15.8097 42.3162 15.7178 42.3162C14.7734 42.3156 13.8494 42.0482 13.0574 41.5463C12.2653 41.0444 11.6391 40.3295 11.2544 39.4878C10.8697 38.6461 10.7429 37.7138 10.8894 36.8033C11.0359 35.8929 11.4493 35.0433 12.0798 34.3572C12.9436 33.4165 14.1545 32.8486 15.4469 32.7782C15.5407 32.773 15.6343 32.7705 15.7274 32.7705C16.6829 32.7694 17.6174 33.0437 18.4137 33.559C18.478 33.6005 18.5439 33.6454 18.616 33.6982C19.1655 34.0919 19.6245 34.5933 19.9636 35.1703C20.3027 35.7474 20.5145 36.3872 20.5852 37.0488C20.656 37.7104 20.5842 38.3791 20.3744 39.0121C20.1647 39.645 19.8217 40.2281 19.3674 40.724Z" fill="#3ECC29"/>
<path d="M47.2186 30.5035C47.3128 30.7178 47.4903 30.8868 47.7122 30.9734C47.934 31.06 48.182 31.057 48.4017 30.9651C48.6213 30.8733 48.7945 30.7 48.8832 30.4835C48.9719 30.267 48.9689 30.025 48.8748 29.8107L46.5356 24.4855C46.4897 24.3785 46.4225 24.2813 46.3379 24.1997C46.2532 24.1181 46.1529 24.0537 46.0427 24.0102C45.9324 23.9666 45.8144 23.9448 45.6954 23.946C45.5765 23.9471 45.459 23.9713 45.3496 24.017C45.2403 24.0628 45.1414 24.1292 45.0585 24.2124C44.9756 24.2957 44.9104 24.3941 44.8667 24.5021C44.823 24.6101 44.8016 24.7254 44.8039 24.8415C44.8061 24.9575 44.8318 25.072 44.8796 25.1783L47.2186 30.5035Z" fill="#3ECC29"/>
<path d="M49.9472 30.5034C49.9932 30.6105 50.0604 30.7076 50.145 30.7892C50.2296 30.8708 50.3299 30.9352 50.4402 30.9788C50.5505 31.0224 50.6685 31.0442 50.7874 31.043C50.9063 31.0418 51.0239 31.0177 51.1332 30.9719C51.2425 30.9262 51.3415 30.8598 51.4244 30.7765C51.5073 30.6933 51.5724 30.5948 51.6161 30.4869C51.6598 30.3789 51.6812 30.2636 51.679 30.1475C51.6767 30.0314 51.651 29.917 51.6032 29.8107L49.2641 24.4855C49.2182 24.3785 49.151 24.2813 49.0663 24.1997C48.9817 24.1181 48.8814 24.0537 48.7712 24.0102C48.6609 23.9666 48.5429 23.9448 48.4239 23.946C48.305 23.9471 48.1875 23.9713 48.0782 24.017C47.9688 24.0628 47.8699 24.1292 47.787 24.2124C47.7041 24.2957 47.6389 24.3941 47.5952 24.5021C47.5515 24.6101 47.5302 24.7254 47.5324 24.8415C47.5346 24.9575 47.5604 25.072 47.6081 25.1783L49.9472 30.5034Z" fill="#3ECC29"/>
<path d="M52.6757 30.5034C52.7216 30.6105 52.7888 30.7076 52.8734 30.7892C52.958 30.8708 53.0584 30.9352 53.1686 30.9788C53.2789 31.0224 53.3969 31.0442 53.5158 31.043C53.6348 31.0418 53.7523 31.0177 53.8616 30.9719C53.971 30.9262 54.0699 30.8598 54.1528 30.7765C54.2357 30.6933 54.3009 30.5948 54.3446 30.4869C54.3883 30.3789 54.4096 30.2636 54.4074 30.1475C54.4052 30.0314 54.3795 29.917 54.3317 29.8107L51.9927 24.4855C51.9467 24.3785 51.8795 24.2813 51.7949 24.1997C51.7103 24.1181 51.61 24.0537 51.4997 24.0102C51.3894 23.9666 51.2714 23.9448 51.1525 23.946C51.0335 23.9471 50.916 23.9713 50.8067 24.017C50.6974 24.0628 50.5984 24.1292 50.5155 24.2124C50.4326 24.2957 50.3674 24.3941 50.3237 24.5021C50.28 24.6101 50.2587 24.7254 50.2609 24.8415C50.2631 24.9575 50.2889 25.072 50.3367 25.1783L52.6757 30.5034Z" fill="#3ECC29"/>
<path d="M54.5448 37.2286C54.4804 37.1761 54.415 37.1256 54.3493 37.0779C53.3483 36.3469 52.0926 36.0301 50.854 36.1961C49.6154 36.362 48.4936 36.9974 47.7316 37.9646C46.9695 38.9318 46.6284 40.153 46.7822 41.3637C46.936 42.5745 47.5723 43.6775 48.5533 44.4338C49.5344 45.1901 50.7811 45.5389 52.0238 45.4047C53.2664 45.2705 54.4048 44.664 55.1926 43.7166C55.9804 42.7693 56.3541 41.5572 56.2329 40.3429C56.1116 39.1286 55.5051 38.0098 54.5448 37.2286ZM51.5332 43.6314C50.9548 43.6314 50.3894 43.4639 49.9086 43.15C49.4278 42.8362 49.0533 42.3902 48.8324 41.8685C48.6116 41.3468 48.5543 40.7729 48.6679 40.2195C48.7815 39.666 49.0608 39.1579 49.4705 38.7594C49.9663 38.277 50.6233 37.9843 51.3216 37.9348C52.02 37.8854 52.7133 38.0823 53.2754 38.4898C53.3127 38.5166 53.3494 38.5448 53.392 38.5797C53.8569 38.9531 54.1922 39.4576 54.352 40.0241C54.5118 40.5906 54.4884 41.1915 54.2848 41.7445C54.0813 42.2975 53.7077 42.7757 53.2151 43.1135C52.7225 43.4514 52.1349 43.6325 51.5328 43.632L51.5332 43.6314Z" fill="#3ECC29"/>
</svg>
