<svg width="50" height="50" viewBox="0 0 50 50" fill="none" xmlns="http://www.w3.org/2000/svg">
<g clip-path="url(#clip0)">
<path d="M16.1299 21.7604L9.81828 32.8062C9.19889 33.8891 8.87207 35.1211 8.87207 36.369C8.87207 40.0818 11.706 43.1444 15.3235 43.5106V46.7726H16.9363V43.5099C20.5542 43.1444 23.3877 40.081 23.3877 36.3682C23.3877 35.1203 23.0613 33.8891 22.4419 32.8062L16.1299 21.7604ZM16.9363 41.8809V36.5568L19.1946 33.5465L17.9042 32.5794L16.9363 33.8698V29.0312H15.3235V37.568L13.4744 35.7189L12.334 36.8592L15.3235 39.8486V41.8809C12.5979 41.5229 10.4849 39.1907 10.4849 36.3682C10.4849 35.4003 10.7381 34.4454 11.2181 33.6059L16.1299 25.0121L21.0421 33.6067C21.5217 34.4462 21.7749 35.4003 21.7749 36.369C21.7749 39.1907 19.6623 41.5229 16.9363 41.8809Z" fill="#3ECC29"/>
<path d="M38.2643 22.8754L37.5434 21.4326L35.4844 22.4623V25.9235L37.5434 26.9532L38.2643 25.5104L37.0972 24.9269V23.4589L38.2643 22.8754Z" fill="#3ECC29"/>
<path d="M48.3874 36.4376V29.3392L43.5488 26.92V21.4656L47.9416 19.2688L47.2199 17.826L42.7424 20.0653L38.7103 18.0493V12.5949L42.7424 10.5788L47.2207 12.8174L47.9424 11.3746L43.5488 9.1786V3.2257H41.936V9.1786L37.9038 11.1947L33.426 8.95613L32.7042 10.3989L37.0974 12.5949V18.0493L33.0653 20.0653L29.0332 18.0493V12.7544C29.9695 12.4205 30.646 11.5333 30.646 10.4835C30.646 9.14986 29.5608 8.06426 28.2267 8.06426C26.8931 8.06426 25.8075 9.14986 25.8075 10.4835C25.8075 11.5333 26.4843 12.4205 27.4203 12.7544V18.0493L24.056 19.7314C23.6359 19.2818 23.3882 18.6608 23.3882 18.0009V6.4514C25.1672 6.4514 26.6139 5.00472 26.6139 3.2257C26.6139 1.44668 25.1672 0 23.3882 0H8.87251C7.09349 0 5.64681 1.44668 5.64681 3.2257C5.64681 5.00472 7.09349 6.4514 8.87251 6.4514V18.0268C8.87251 18.8872 8.44528 19.6826 7.7558 20.1008C2.37385 23.3785 -0.562432 29.3168 0.0923948 35.5973C0.87047 43.0567 6.84109 49.0703 14.2895 49.896C14.916 49.9653 15.5385 50 16.1563 50C20.1329 49.9992 23.8867 48.5726 26.884 45.8895C29.0359 43.9632 30.6074 41.5116 31.4776 38.8163L32.2589 39.2069V45.6583L37.5435 48.3001L38.2653 46.8573L33.8717 44.6613V39.2069L38.2645 37.0101L38.7103 36.7877V30.3363L42.7424 28.3202L46.7745 30.3363V36.4376C45.8385 36.7715 45.1617 37.6587 45.1617 38.7084C45.1617 40.0421 46.2473 41.1277 47.5809 41.1277C48.915 41.1277 50.0002 40.0421 50.0002 38.7084C50.0002 37.6587 49.3237 36.7715 48.3874 36.4376ZM32.2589 21.4656V26.92L30.9776 27.5602C29.8404 24.883 27.9818 22.5413 25.5397 20.7922L28.2267 19.4495L32.2589 21.4656ZM28.2267 9.67711C28.6721 9.67711 29.0332 10.0386 29.0332 10.4835C29.0332 10.9285 28.6721 11.29 28.2267 11.29C27.7818 11.29 27.4203 10.9285 27.4203 10.4835C27.4203 10.0386 27.7818 9.67711 28.2267 9.67711ZM25.809 44.6881C22.6932 47.4783 18.6666 48.762 14.4683 48.2926C7.76801 47.55 2.39709 42.1405 1.69619 35.4304C1.10751 29.7747 3.75006 24.429 8.5953 21.4801C9.38401 21.0001 9.96363 20.2366 10.2613 19.3542H15.3239V17.7414H10.4854V16.1285H16.9368V14.5157H10.4854V12.9028H15.3239V11.29H10.4854V9.67711H16.9368V8.06426H10.4854V4.83855H8.87251C7.983 4.83855 7.25966 4.11521 7.25966 3.2257C7.25966 2.33619 7.983 1.61285 8.87251 1.61285H23.3882C24.2777 1.61285 25.001 2.33619 25.001 3.2257C25.001 4.11521 24.2777 4.83855 23.3882 4.83855H13.7111V6.4514H21.7753V18.0009C21.7753 19.4349 22.5054 20.7718 23.6819 21.4896C28.0421 24.1518 30.646 28.7797 30.646 33.8699C30.646 37.993 28.8823 41.9357 25.809 44.6881ZM33.0653 37.8067L31.9041 37.2263C32.138 36.1313 32.2589 35.0071 32.2589 33.8699C32.2589 32.2169 32.0049 30.6095 31.5347 29.0853L33.0653 28.3202L37.0974 30.3363V35.7906L33.0653 37.8067ZM41.936 26.92L37.9038 28.936L33.8717 26.92V21.4656L37.9038 19.4495L41.936 21.4656V26.92ZM47.5809 39.5149C47.136 39.5149 46.7745 39.1534 46.7745 38.7084C46.7745 38.2635 47.136 37.902 47.5809 37.902C48.0263 37.902 48.3874 38.2635 48.3874 38.7084C48.3874 39.1534 48.0263 39.5149 47.5809 39.5149Z" fill="#3ECC29"/>
</g>
<defs>
<clipPath id="clip0">
<rect width="50" height="50" fill="white"/>
</clipPath>
</defs>
</svg>
