<svg width="100" height="100" viewBox="0 0 100 100" fill="none" xmlns="http://www.w3.org/2000/svg">
<path d="M6.25 71.875H12.5V87.5H6.25V90.625H12.5C12.5 91.0394 12.6646 91.4368 12.9576 91.7299C13.2507 92.0229 13.6481 92.1875 14.0625 92.1875H26.5625C26.9769 92.1875 27.3743 92.0229 27.6674 91.7299C27.9604 91.4368 28.125 91.0394 28.125 90.625V90.0297L39.7906 94.8734C46.1505 97.4685 53.2595 97.5467 59.675 95.0922L83.8125 85.8906C84.5201 85.6216 85.1668 85.2138 85.7147 84.6914C86.2626 84.169 86.7007 83.5424 87.0031 82.8484C87.3167 82.1446 87.4863 81.3851 87.5022 80.6148C87.518 79.8444 87.3797 79.0786 87.0953 78.3625C86.818 77.6486 86.3995 76.998 85.865 76.4495C85.3305 75.901 84.6909 75.466 83.9844 75.1703C83.2925 74.8767 82.5485 74.7254 81.7969 74.7254C81.0452 74.7254 80.3013 74.8767 79.6094 75.1703L69.4781 79.4734C69.5058 79.2854 69.5236 79.0961 69.5312 78.9062C69.5312 77.4558 68.9551 76.0649 67.9295 75.0393C66.9039 74.0137 65.5129 73.4375 64.0625 73.4375H51.9422C50.7162 73.4354 49.5072 73.1504 48.4094 72.6047C43.3389 70.0765 37.7517 68.7572 32.0859 68.75H28.125C28.125 68.3356 27.9604 67.9382 27.6674 67.6451C27.3743 67.3521 26.9769 67.1875 26.5625 67.1875H14.0625C13.6481 67.1875 13.2507 67.3521 12.9576 67.6451C12.6646 67.9382 12.5 68.3356 12.5 68.75H6.25V71.875ZM32.0859 71.875C37.267 71.881 42.3761 73.0876 47.0125 75.4C48.5441 76.1624 50.2313 76.5603 51.9422 76.5625H64.0625C64.6367 76.5658 65.1896 76.7798 65.6165 77.1638C66.0433 77.5479 66.3143 78.0752 66.3781 78.6458C66.4419 79.2164 66.294 79.7906 65.9625 80.2594C65.631 80.7282 65.1389 81.059 64.5797 81.1891C64.375 81.2078 64.1734 81.25 63.9656 81.25H45.3125V84.375H63.9656C63.9984 84.375 64.0297 84.375 64.0625 84.375C64.0938 84.375 64.1234 84.3656 64.1563 84.3656C65.3961 84.3451 66.6204 84.0862 67.7625 83.6031L80.8266 78.0563C81.1345 77.9248 81.4659 77.857 81.8008 77.857C82.1356 77.857 82.467 77.9248 82.775 78.0563C83.0951 78.1922 83.3846 78.3912 83.6262 78.6414C83.8678 78.8916 84.0565 79.1878 84.1813 79.5125C84.3126 79.8443 84.3766 80.199 84.3693 80.5558C84.3621 80.9126 84.2838 81.2644 84.1391 81.5906C84.002 81.9059 83.8034 82.1908 83.555 82.4285C83.3065 82.6662 83.0132 82.852 82.6922 82.975L58.5547 92.1781C52.8828 94.3502 46.5969 94.2821 40.9734 91.9875L28.125 86.6437V71.875H32.0859ZM15.625 70.3125H25V89.0625H15.625V70.3125Z" fill="#3ECC29"/>
<path d="M21.875 82.8125H18.75V85.9375H21.875V82.8125Z" fill="#3ECC29"/>
<path d="M53.125 12.5H15.625C13.9674 12.5 12.3777 13.1585 11.2056 14.3306C10.0335 15.5027 9.375 17.0924 9.375 18.75V40.625C9.375 42.2826 10.0335 43.8723 11.2056 45.0444C12.3777 46.2165 13.9674 46.875 15.625 46.875H19.7469L28.6859 54.3266C28.9677 54.5596 29.3218 54.6872 29.6875 54.6875C29.9166 54.6877 30.1429 54.637 30.35 54.5391C30.6188 54.4132 30.8463 54.2134 31.0057 53.9629C31.1651 53.7125 31.2498 53.4218 31.25 53.125V46.875H40.625V53.125C40.625 54.7826 41.2835 56.3723 42.4556 57.5444C43.6277 58.7165 45.2174 59.375 46.875 59.375H68.75V65.625C68.7502 65.9218 68.8349 66.2125 68.9943 66.4629C69.1537 66.7134 69.3812 66.9132 69.65 67.0391C69.857 67.1372 70.0834 67.1879 70.3125 67.1875C70.6782 67.1872 71.0323 67.0596 71.3141 66.8266L80.2531 59.375H84.375C86.0326 59.375 87.6223 58.7165 88.7944 57.5444C89.9665 56.3723 90.625 54.7826 90.625 53.125V31.25C90.625 29.5924 89.9665 28.0027 88.7944 26.8306C87.6223 25.6585 86.0326 25 84.375 25H59.375V18.75C59.375 17.0924 58.7165 15.5027 57.5444 14.3306C56.3723 13.1585 54.7826 12.5 53.125 12.5ZM40.625 31.25V43.75H29.6875C29.2731 43.75 28.8757 43.9146 28.5826 44.2076C28.2896 44.5007 28.125 44.8981 28.125 45.3125V49.7891L21.3141 44.1109C21.0324 43.8778 20.6782 43.7502 20.3125 43.75H15.625C14.7962 43.75 14.0013 43.4208 13.4153 42.8347C12.8292 42.2487 12.5 41.4538 12.5 40.625V18.75C12.5 17.9212 12.8292 17.1263 13.4153 16.5403C14.0013 15.9542 14.7962 15.625 15.625 15.625H53.125C53.9538 15.625 54.7487 15.9542 55.3347 16.5403C55.9208 17.1263 56.25 17.9212 56.25 18.75V25H46.875C45.2174 25 43.6277 25.6585 42.4556 26.8306C41.2835 28.0027 40.625 29.5924 40.625 31.25ZM87.5 31.25V53.125C87.5 53.9538 87.1708 54.7487 86.5847 55.3347C85.9987 55.9208 85.2038 56.25 84.375 56.25H79.6875C79.3218 56.2501 78.9676 56.3778 78.6859 56.6109L71.875 62.2891V57.8125C71.875 57.3981 71.7104 57.0007 71.4174 56.7076C71.1243 56.4146 70.7269 56.25 70.3125 56.25H46.875C46.0462 56.25 45.2513 55.9208 44.6653 55.3347C44.0792 54.7487 43.75 53.9538 43.75 53.125V31.25C43.75 30.4212 44.0792 29.6263 44.6653 29.0403C45.2513 28.4542 46.0462 28.125 46.875 28.125H84.375C85.2038 28.125 85.9987 28.4542 86.5847 29.0403C87.1708 29.6263 87.5 30.4212 87.5 31.25Z" fill="#3ECC29"/>
<path d="M21.875 18.75H18.75V21.875H21.875V18.75Z" fill="#3ECC29"/>
<path d="M53.125 18.75H25V21.875H53.125V18.75Z" fill="#3ECC29"/>
<path d="M37.5 25H15.625V28.125H37.5V25Z" fill="#3ECC29"/>
<path d="M37.5 31.25H15.625V34.375H37.5V31.25Z" fill="#3ECC29"/>
<path d="M37.5 37.5H15.625V40.625H37.5V37.5Z" fill="#3ECC29"/>
<path d="M53.125 31.25H50V34.375H53.125V31.25Z" fill="#3ECC29"/>
<path d="M68.75 31.25H56.25V34.375H68.75V31.25Z" fill="#3ECC29"/>
<path d="M68.75 37.5H46.875V40.625H68.75V37.5Z" fill="#3ECC29"/>
<path d="M68.75 43.75H46.875V46.875H68.75V43.75Z" fill="#3ECC29"/>
<path d="M64.0625 50H46.875V53.125H64.0625V50Z" fill="#3ECC29"/>
<path d="M6.25 18.75H3.125V42.1875H6.25V18.75Z" fill="#3ECC29"/>
<path d="M85.9375 18.75H73.4375V21.875H85.9375C88.0087 21.8775 89.9944 22.7014 91.459 24.166C92.9236 25.6306 93.7475 27.6163 93.75 29.6875V35.9375H96.875V29.6875C96.8713 26.7878 95.7177 24.008 93.6674 21.9576C91.617 19.9073 88.8372 18.7537 85.9375 18.75Z" fill="#3ECC29"/>
<path d="M70.3125 18.75H67.1875V21.875H70.3125V18.75Z" fill="#3ECC29"/>
<path d="M78.125 34.375C78.9538 34.375 79.7487 34.7042 80.3347 35.2903C80.9208 35.8763 81.25 36.6712 81.25 37.5C81.25 38.3288 80.9208 39.1237 80.3347 39.7097C79.7487 40.2958 78.9538 40.625 78.125 40.625C77.7106 40.625 77.3132 40.7896 77.0201 41.0826C76.7271 41.3757 76.5625 41.7731 76.5625 42.1875V46.875H79.6875V43.5516C80.8193 43.2593 81.8465 42.6555 82.6524 41.8087C83.4583 40.962 84.0105 39.9062 84.2464 38.7612C84.4823 37.6163 84.3924 36.4282 83.9869 35.3318C83.5814 34.2355 82.8765 33.2748 81.9523 32.559C81.0282 31.8431 79.9218 31.4008 78.7589 31.2823C77.596 31.1637 76.4231 31.3737 75.3735 31.8883C74.3239 32.4029 73.4397 33.2016 72.8213 34.1935C72.2028 35.1855 71.875 36.331 71.875 37.5H75C75 36.6712 75.3292 35.8763 75.9153 35.2903C76.5013 34.7042 77.2962 34.375 78.125 34.375Z" fill="#3ECC29"/>
<path d="M79.6875 50H76.5625V53.125H79.6875V50Z" fill="#3ECC29"/>
</svg>
