<svg width="80" height="80" viewBox="0 0 80 80" fill="none" xmlns="http://www.w3.org/2000/svg">
<path d="M77.9841 29.0946L73.9583 25.6155C73.459 25.1836 72.7038 25.2388 72.2721 25.7385C71.8404 26.238 71.8952 26.993 72.3951 27.4247L76.4205 30.9038C77.8555 32.1439 78.014 34.3203 76.774 35.7553L50.626 66.011C50.1943 66.5105 50.2491 67.2655 50.7488 67.6974C50.9749 67.8928 51.2532 67.9885 51.5301 67.9885C51.8655 67.9885 52.1988 67.8482 52.4352 67.5747L78.583 37.3188C80.6854 34.8863 80.4166 31.1968 77.9841 29.0946Z" fill="#3ECC29"/>
<path d="M70.8972 22.9692L52.2747 6.87534C51.0962 5.8569 49.5915 5.35893 48.0384 5.47143C46.485 5.5844 45.0687 6.29581 44.0503 7.47409L42.2759 9.52721C41.8442 10.0269 41.899 10.7819 42.3987 11.2136C42.8986 11.6456 43.6534 11.5903 44.0851 11.0908L45.8595 9.03768C46.4603 8.34268 47.2958 7.92299 48.2122 7.85627C49.1286 7.78893 50.0159 8.08362 50.7111 8.6844L69.3336 24.7783C69.5597 24.9738 69.8379 25.0694 70.1148 25.0694C70.4503 25.0694 70.7836 24.9291 71.02 24.6556C71.4515 24.156 71.3967 23.401 70.8972 22.9692Z" fill="#3ECC29"/>
<path d="M59.5466 18.7425L27.3297 7.9366C24.2811 6.9141 20.9697 8.56239 19.9474 11.6105L19.5224 12.8775C19.3124 13.5035 19.6497 14.1813 20.2758 14.3913C20.9019 14.6013 21.5794 14.2641 21.7895 13.6379L22.2145 12.3708C22.8177 10.5725 24.7709 9.6002 26.5694 10.2035L58.7864 21.0093C60.5847 21.6125 61.5569 23.566 60.9538 25.3641L45.9642 70.0547C45.7542 70.6807 46.0916 71.3583 46.7177 71.5685C46.8438 71.6107 46.9719 71.6308 47.098 71.6308C47.5977 71.6308 48.0636 71.315 48.2314 70.8152L63.2209 26.1247C64.2431 23.0768 62.595 19.7649 59.5466 18.7425Z" fill="#3ECC29"/>
<path d="M39.8117 15.7451H5.83094C2.61578 15.7451 0 18.3607 0 21.5759V68.7132C0 71.9284 2.61578 74.5442 5.83094 74.5442H39.8119C43.027 74.5442 45.6428 71.9284 45.6428 68.7132V21.5759C45.6427 18.3607 43.027 15.7451 39.8117 15.7451ZM43.2514 68.7132C43.2514 70.61 41.7083 72.1529 39.8117 72.1529H5.83094C3.93422 72.1529 2.39125 70.6098 2.39125 68.7132V21.5759C2.39125 19.6792 3.93438 18.1362 5.83094 18.1362H39.8119C41.7086 18.1362 43.2516 19.6793 43.2516 21.5759V68.7132H43.2514Z" fill="#3ECC29"/>
<path d="M40.4341 48.7437H5.20881C4.5485 48.7437 4.01318 49.279 4.01318 49.9393C4.01318 50.5996 4.5485 51.1349 5.20881 51.1349H40.4343C41.0946 51.1349 41.6299 50.5996 41.6299 49.9393C41.6297 49.279 41.0944 48.7437 40.4341 48.7437Z" fill="#3ECC29"/>
<path d="M34.8603 55.5808H20.055C19.3947 55.5808 18.8594 56.1161 18.8594 56.7764C18.8594 57.4367 19.3947 57.9721 20.055 57.9721H34.8603C35.5206 57.9721 36.0559 57.4367 36.0559 56.7764C36.0559 56.1161 35.5206 55.5808 34.8603 55.5808Z" fill="#3ECC29"/>
<path d="M16.0694 55.5808H10.782C10.1217 55.5808 9.58643 56.1161 9.58643 56.7764C9.58643 57.4367 10.1217 57.9721 10.782 57.9721H16.0694C16.7297 57.9721 17.265 57.4367 17.265 56.7764C17.265 56.1161 16.7297 55.5808 16.0694 55.5808Z" fill="#3ECC29"/>
<path d="M34.8602 60.1514H10.7821C10.1217 60.1514 9.58643 60.6867 9.58643 61.347C9.58643 62.0073 10.1217 62.5426 10.7821 62.5426H34.8602C35.5205 62.5426 36.0558 62.0073 36.0558 61.347C36.0558 60.6865 35.5205 60.1514 34.8602 60.1514Z" fill="#3ECC29"/>
<path d="M34.8602 64.7217H10.7821C10.1217 64.7217 9.58643 65.257 9.58643 65.9173C9.58643 66.5776 10.1217 67.1129 10.7821 67.1129H34.8602C35.5205 67.1129 36.0558 66.5776 36.0558 65.9173C36.0558 65.257 35.5205 64.7217 34.8602 64.7217Z" fill="#3ECC29"/>
<path d="M35.9615 29.6175C35.8209 29.1847 35.4468 28.8693 34.9965 28.8039L27.3242 27.6891L23.8931 20.7368C23.6915 20.3286 23.2761 20.0702 22.8209 20.0702C22.3659 20.0702 21.9503 20.3286 21.7487 20.7368L18.3175 27.6891L10.6451 28.8039C10.1948 28.8693 9.82059 29.1847 9.68012 29.6175C9.5395 30.0503 9.65684 30.5253 9.98262 30.843L15.5345 36.2546L14.2239 43.8961C14.147 44.3446 14.3314 44.7978 14.6995 45.0653C14.9078 45.2166 15.1545 45.2936 15.4023 45.2936C15.5925 45.2936 15.7836 45.2482 15.9586 45.1564L22.8209 41.5485L29.6832 45.1564C30.0861 45.3682 30.5742 45.3328 30.9423 45.0653C31.3106 44.7978 31.4948 44.3446 31.4179 43.8961L30.1073 36.2546L35.659 30.843C35.9848 30.5253 36.1022 30.0503 35.9615 29.6175ZM27.9882 34.9811C27.7064 35.2558 27.5778 35.6516 27.6443 36.0394L28.6517 41.9127L23.3772 39.1396C23.0287 38.9566 22.6126 38.9566 22.2645 39.1396L16.99 41.9127L17.9973 36.0394C18.0637 35.6516 17.9353 35.2558 17.6534 34.9811L13.3864 30.8218L19.2834 29.9647C19.6728 29.9082 20.0093 29.6636 20.1836 29.3107L22.8207 23.9669L25.4579 29.3107C25.632 29.6635 25.9687 29.9082 26.3581 29.9647L32.2553 30.8218L27.9882 34.9811Z" fill="#3ECC29"/>
</svg>
