<svg width="50" height="50" viewBox="0 0 50 50" fill="none" xmlns="http://www.w3.org/2000/svg">
<g clip-path="url(#clip0)">
<path d="M35.5121 25.612C35.4258 25.3175 35.2045 25.0769 34.9102 24.9693C34.8508 24.9476 34.3695 24.7773 33.6218 24.668C36.816 21.2692 35.7614 17.2984 35.5121 16.5229C35.4258 16.2283 35.2045 15.9878 34.9102 15.8802C34.7731 15.83 32.3824 14.987 29.6586 15.935C29.8124 15.304 29.9023 14.6103 29.9023 13.8492C29.9023 8.97939 26.2145 6.83896 25.4745 6.45898C25.2052 6.31151 24.8784 6.29804 24.5944 6.43007C24.4113 6.51513 20.1091 8.57401 20.1091 13.8492C20.1091 14.6119 20.1995 15.307 20.3539 15.939C17.6252 14.9847 15.2281 15.8299 15.0908 15.8802C14.7965 15.9878 14.5751 16.2283 14.4889 16.5229C14.2396 17.2984 13.185 21.2692 16.3792 24.668C15.6315 24.7773 15.1501 24.9476 15.0908 24.9693C14.7965 25.0769 14.575 25.3176 14.4888 25.6121C14.2343 26.4038 13.14 30.5253 16.5835 33.9688C18.5763 35.9616 20.788 36.437 22.4451 36.437C23.0585 36.437 23.5948 36.3717 24.0169 36.2941V42.6841C24.0169 43.2233 24.4542 43.6606 24.9935 43.6606C25.5329 43.6606 25.9701 43.2233 25.9701 42.6841V36.2917C26.3942 36.3702 26.9357 36.4369 27.5558 36.4369C29.2128 36.4369 31.4248 35.9613 33.4173 33.9687C36.8609 30.5251 35.7666 26.4037 35.5121 25.612ZM24.0169 33.2499C23.9953 33.6932 23.9331 34.0657 23.8736 34.3336C22.8297 34.5655 20.218 34.8411 17.9647 32.5877C15.7453 30.3684 15.9779 27.8 16.2236 26.6793C16.8799 26.5366 18.1607 26.3776 19.5787 26.8378C19.672 26.8727 19.7651 26.9058 19.8577 26.9365C20.6086 27.2213 21.3883 27.6861 22.1273 28.425C23.5354 29.8331 23.9559 31.3809 24.0169 32.5983V33.2499ZM24.0169 24.1609C23.9953 24.6042 23.9331 24.9767 23.8736 25.2445C23.2268 25.3884 21.9782 25.548 20.5859 25.1135C20.4448 25.0591 20.3044 25.0096 20.1651 24.9647C19.4368 24.677 18.6826 24.2165 17.9646 23.4986C15.7453 21.2793 15.9779 18.7109 16.2236 17.5903C17.2665 17.3636 19.8855 17.0942 22.1273 19.336C22.1416 19.3503 22.1544 19.3646 22.1684 19.3788C22.2541 19.4749 22.34 19.5668 22.4258 19.6551C23.5947 20.9745 23.9605 22.3833 24.0169 23.5094V24.1609ZM25.0073 19.2611C24.7012 19.0648 24.2602 18.7413 23.8123 18.2736C23.7666 18.2235 23.7204 18.1734 23.6729 18.1235C22.857 17.2172 22.0622 15.8268 22.0622 13.8492C22.0622 10.6659 24.0993 9.01425 25.0007 8.43925C25.9662 9.05702 27.9491 10.7087 27.9491 13.8492C27.9491 15.7154 27.2488 17.0545 26.4878 17.9596C26.3296 18.118 26.1816 18.2779 26.042 18.4387C25.6516 18.8183 25.2777 19.0889 25.0073 19.2611ZM25.9761 23.8444C25.9748 22.6979 26.2713 21.1808 27.4856 19.7559C27.6295 19.613 27.7741 19.4592 27.9174 19.2938C30.1584 17.0896 32.7396 17.3589 33.7769 17.5884C34.0227 18.708 34.2569 21.278 32.0362 23.4986C31.3196 24.2153 30.5669 24.6755 29.8398 24.9634C29.6981 25.0089 29.5554 25.0592 29.4119 25.1145C28.0198 25.5484 26.7719 25.3882 26.1277 25.2448C26.0554 24.9193 25.9789 24.4413 25.976 23.8693C25.976 23.861 25.9761 23.8527 25.9761 23.8444ZM32.0362 32.5877C29.7825 34.8415 27.1707 34.5654 26.1293 34.3344C25.9022 33.2955 25.6277 30.6709 27.8736 28.425C28.5921 27.7064 29.3469 27.2458 30.0758 26.9581C30.2149 26.9134 30.3548 26.8642 30.4956 26.8099C31.8848 26.3763 33.1306 26.5345 33.7769 26.6773C34.0227 27.7971 34.2569 30.3671 32.0362 32.5877Z" fill="#3ECC29"/>
<path d="M30.2105 0.544043C28.5083 0.183105 26.7552 0 25 0C18.3223 0 12.0442 2.60039 7.32236 7.32236C2.60049 12.0442 0 18.3223 0 25C0 30.5643 1.87207 35.9958 5.28281 40.3692C4.89912 40.9628 4.69258 41.6542 4.69258 42.3778C4.69258 43.369 5.07861 44.3009 5.77949 45.0019C6.48037 45.7027 7.4123 46.0888 8.40352 46.0888C9.39473 46.0888 10.3267 45.7027 11.0275 45.0019C11.7285 44.3009 12.1145 43.369 12.1145 42.3778C12.1145 41.3866 11.7284 40.4548 11.0275 39.7538C10.3267 39.0528 9.39473 38.6668 8.40352 38.6668C7.81602 38.6668 7.24971 38.8034 6.73965 39.0599C3.64863 35.0474 1.95312 30.0841 1.95312 25C1.95312 12.2919 12.2919 1.95313 25 1.95313C26.6193 1.95313 28.236 2.12188 29.8054 2.45469C30.3333 2.5665 30.8514 2.22949 30.9633 1.70195C31.0752 1.17432 30.7382 0.655957 30.2105 0.544043ZM7.16055 41.1348C7.50322 40.792 7.95332 40.6207 8.40352 40.6207C8.85371 40.6207 9.30381 40.7921 9.64648 41.1348C9.97852 41.4667 10.1613 41.9082 10.1613 42.3777C10.1613 42.8473 9.97852 43.2887 9.64648 43.6207C8.96113 44.3063 7.8459 44.3061 7.16055 43.6207C6.82852 43.2888 6.6457 42.8473 6.6457 42.3777C6.6457 41.9082 6.82852 41.4668 7.16055 41.1348Z" fill="#3ECC29"/>
<path d="M44.7176 9.63079C45.1013 9.03723 45.3078 8.34583 45.3078 7.62219C45.3078 6.63098 44.9218 5.69905 44.2209 4.99817C43.52 4.29719 42.5881 3.91125 41.5969 3.91125C40.6056 3.91125 39.6737 4.29729 38.9728 4.99817C38.272 5.69905 37.8859 6.63098 37.8859 7.62219C37.8859 8.61341 38.272 9.54534 38.9728 10.2462C39.6737 10.9472 40.6056 11.3331 41.5969 11.3331C42.1845 11.3331 42.7507 11.1965 43.2608 10.9401C46.3517 14.9527 48.0472 19.916 48.0472 25C48.0472 37.7081 37.7085 48.0469 25.0004 48.0469C23.6333 48.0469 22.2636 47.9264 20.9293 47.6886C20.3986 47.5942 19.8911 47.9476 19.7966 48.4788C19.7019 49.0097 20.0556 49.5168 20.5866 49.6115C22.0338 49.8693 23.5187 50 25.0004 50C31.6781 50 37.9561 47.3996 42.6781 42.6778C47.4001 37.956 50.0004 31.6778 50.0004 25C50.0004 19.4358 48.1283 14.0042 44.7176 9.63079ZM42.8399 8.86516C42.508 9.1972 42.0665 9.38001 41.597 9.38001C41.1274 9.38001 40.6859 9.19729 40.354 8.86516C39.6685 8.17981 39.6685 7.06467 40.354 6.37922C40.6859 6.04719 41.1274 5.86438 41.597 5.86438C42.0665 5.86438 42.5079 6.04719 42.8399 6.37922C43.172 6.71116 43.3548 7.15266 43.3548 7.62219C43.3548 8.09173 43.172 8.53313 42.8399 8.86516Z" fill="#3ECC29"/>
<path d="M16.4198 46.3967L16.051 47.301L16.417 46.3956C15.9168 46.1936 15.3478 46.4349 15.1457 46.9349C14.9435 47.4349 15.185 48.0042 15.685 48.2064L15.7152 48.2183C15.8303 48.2624 15.9489 48.2833 16.0655 48.2833C16.4588 48.2833 16.8306 48.0452 16.9794 47.6568C17.1724 47.153 16.9235 46.5895 16.4198 46.3967Z" fill="#3ECC29"/>
<path d="M34.3579 1.81072L34.3405 1.80378C33.8399 1.60339 33.2715 1.84705 33.0711 2.34783C32.8707 2.84861 33.1144 3.41677 33.6152 3.61716L33.6263 3.62166C33.7462 3.67009 33.8699 3.69295 33.9918 3.69295C34.3781 3.69295 34.744 3.46218 34.8976 3.08201C35.0996 2.58191 34.858 2.01277 34.3579 1.81072Z" fill="#3ECC29"/>
</g>
<defs>
<clipPath id="clip0">
<rect width="50" height="50" fill="white"/>
</clipPath>
</defs>
</svg>
