<svg width="50" height="50" viewBox="0 0 50 50" fill="none" xmlns="http://www.w3.org/2000/svg">
<path d="M40 27.9165V27.0831C40 25.7024 38.8807 24.5831 37.5 24.5831C36.1221 24.59 35.0069 25.7052 35 27.0831V27.9165H32.0658C31.6084 27.3554 31.0823 26.854 30.5 26.424C30.3333 26.299 30.1667 26.1823 30 26.0748V22.0831H31.6667C33.0446 22.0763 34.1598 20.961 34.1667 19.5831C34.1667 18.2024 33.0474 17.0831 31.6667 17.0831H28.3333V15.4165H30C30.4602 15.4165 30.8333 15.0433 30.8333 14.5831V12.0831H35.8333C37.2141 12.0831 38.3333 10.9639 38.3333 9.58313C38.3333 8.2024 37.2141 7.08313 35.8333 7.08313H14.1667C12.7859 7.08313 11.6667 8.2024 11.6667 9.58313C11.6667 10.9639 12.7859 12.0831 14.1667 12.0831H19.1667V14.5831C19.1667 15.0433 19.5398 15.4165 20 15.4165H21.6667V17.0831H18.3333C16.9554 17.09 15.8402 18.2052 15.8333 19.5831C15.8333 20.9639 16.9526 22.0831 18.3333 22.0831H20V26.0748C19.8333 26.1823 19.6667 26.2973 19.5058 26.4206C18.921 26.851 18.393 27.3537 17.9342 27.9165H15V27.0831C14.9931 25.7052 13.8779 24.59 12.5 24.5831C11.1193 24.5831 10 25.7024 10 27.0831V27.9165H0V39.5831H10V40.4165C10 41.7972 11.1193 42.9165 12.5 42.9165C13.8807 42.9165 15 41.7972 15 40.4165V39.5831H17.9358C21.1491 43.4846 26.9167 44.0424 30.8181 40.8292C31.2726 40.4549 31.6899 40.0376 32.0642 39.5831H35V40.4165C35 41.7972 36.1193 42.9165 37.5 42.9165C38.8807 42.9165 40 41.7972 40 40.4165V39.5831H50V27.9165H40ZM10 37.9165H1.66667V29.5831H10V37.9165ZM13.3333 40.4165C13.3333 40.8767 12.9602 41.2498 12.5 41.2498C12.0398 41.2498 11.6667 40.8767 11.6667 40.4165V27.0831C11.6667 26.6229 12.0398 26.2498 12.5 26.2498C12.7246 26.2491 12.9394 26.3414 13.0933 26.5048C13.2489 26.6568 13.3355 26.8657 13.3333 27.0831V40.4165ZM14.1667 10.4165C13.7065 10.4165 13.3333 10.0433 13.3333 9.58313C13.3333 9.12292 13.7065 8.7498 14.1667 8.7498H35.8333C36.2935 8.7498 36.6667 9.12292 36.6667 9.58313C36.6667 10.0433 36.2935 10.4165 35.8333 10.4165H14.1667ZM20.8333 13.7498V12.0831H29.1667V13.7498H20.8333ZM26.6667 15.4165V17.0831H23.3333V15.4165H26.6667ZM18.3333 20.4165C17.8731 20.4165 17.5 20.0433 17.5 19.5831C17.4993 19.3585 17.5916 19.1438 17.755 18.9898C17.907 18.8343 18.1159 18.7476 18.3333 18.7498H31.6667C32.1269 18.7498 32.5 19.1229 32.5 19.5831C32.5007 19.8077 32.4084 20.0225 32.245 20.1765C32.093 20.332 31.8841 20.4187 31.6667 20.4165H18.3333ZM35 37.9165H31.6583C31.396 37.9165 31.1491 38.04 30.9917 38.2498C28.5156 41.5589 23.8257 42.2342 20.5167 39.7581C19.9445 39.3299 19.4365 38.822 19.0083 38.2498C18.8509 38.04 18.604 37.9165 18.3417 37.9165H15V29.5831H18.3417C18.605 29.5818 18.8522 29.456 19.0083 29.244C19.6142 28.4398 20.3768 27.7668 21.25 27.2656C21.5086 27.1164 21.6676 26.8401 21.6667 26.5415V22.0831H28.3333V26.5415C28.3325 26.8401 28.4914 27.1164 28.75 27.2656C29.0104 27.4163 29.2608 27.5832 29.5 27.7656C30.0656 28.1821 30.5652 28.6817 30.9817 29.2473C31.1378 29.4594 31.385 29.5851 31.6483 29.5865H35V37.9165ZM38.3333 40.4165C38.3333 40.8767 37.9602 41.2498 37.5 41.2498C37.0398 41.2498 36.6667 40.8767 36.6667 40.4165V27.0831C36.6659 26.8585 36.7582 26.6438 36.9217 26.4898C37.0736 26.3343 37.2826 26.2476 37.5 26.2498C37.9602 26.2498 38.3333 26.6229 38.3333 27.0831V40.4165ZM48.3333 37.9165H40V29.5831H48.3333V37.9165Z" fill="#3ECC29"/>
</svg>
