<svg width="100" height="100" viewBox="0 0 100 100" fill="none" xmlns="http://www.w3.org/2000/svg">
<path d="M99.4314 58.3923L89.5269 48.4406V39.1175C89.5269 39.032 89.5193 38.9489 89.5086 38.8657C91.979 35.5072 91.696 30.745 88.6602 27.7085L65.573 4.622C65.5692 4.61819 65.5653 4.61514 65.5615 4.61132C63.5848 2.64523 60.9625 1.56262 58.1732 1.56262C55.374 1.56262 52.7426 2.65286 50.7636 4.63192L22.5151 32.8804C22.4563 32.9392 22.4037 33.0018 22.3541 33.0651C16.2651 34.0592 11.5883 39.299 11.4677 45.636L4.78286 74.5292C2.01339 75.4035 0 77.9952 0 81.0493V96.4789C0 97.5257 0.82321 98.3771 1.85699 98.4275C1.87988 98.4305 1.90887 98.4321 1.95312 98.4321H81.0545C82.1333 98.4321 83.0076 97.5577 83.0076 96.4789C83.0076 95.4009 82.1333 94.5258 81.0545 94.5258H48.8837V81.0493C48.8837 78.0052 46.8825 75.4203 44.1276 74.5376L37.8081 47.2267L60.8481 24.1868L75.691 39.0297C75.6903 39.0595 75.6872 39.0885 75.6872 39.1175V48.4406L65.7828 58.3923C65.1755 59.0027 65.0389 59.9388 65.4478 60.6964L70.2856 69.6762C70.6389 70.3315 71.3118 70.7031 72.0068 70.7031C72.3196 70.7031 72.637 70.6283 72.9315 70.4696C73.8814 69.9577 74.2361 68.7729 73.725 67.8238L69.5746 60.1204L78.4712 51.1803H86.743L95.6403 60.1204L91.49 67.8238C90.978 68.7729 91.3328 69.9577 92.2827 70.4696C92.5771 70.6283 92.8945 70.7031 93.2073 70.7031C93.9024 70.7031 94.576 70.3315 94.9285 69.6762L99.7671 60.6964C100.174 59.9388 100.038 59.0027 99.4314 58.3923ZM79.5935 41.8328C80.5388 42.1837 81.5489 42.3691 82.5872 42.3691C83.6401 42.3691 84.664 42.1784 85.6207 41.8183V47.274H79.5935V41.8328ZM27.6321 33.2879L47.8125 13.1074C48.0536 15.4054 49.0516 17.6392 50.8086 19.3963C52.5237 21.1114 54.7301 22.1558 57.1105 22.4007L36.9994 42.511C35.7818 37.9898 32.1815 34.4361 27.6321 33.2879ZM62.8211 7.39452C64.0624 8.63582 64.7467 10.2861 64.7467 12.0416C64.7467 13.6796 64.1509 15.2261 63.0629 16.4346C62.9797 16.4941 62.8996 16.5597 62.8249 16.6345C61.5889 17.8704 59.9455 18.551 58.1977 18.551C56.4505 18.551 54.8072 17.8704 53.5712 16.6345C51.0199 14.0832 51.0199 9.93128 53.5712 7.38002C53.6277 7.32356 53.6788 7.26406 53.7268 7.20226C54.943 6.08303 56.5108 5.46886 58.174 5.46886C59.9295 5.46886 61.5798 6.15245 62.8211 7.39452ZM24.4537 36.7997C29.4639 36.7997 33.5403 40.8753 33.5403 45.8862C33.5403 50.8957 29.4639 54.9721 24.4537 54.9721C19.4435 54.9721 15.3679 50.8957 15.3679 45.8862C15.3679 40.8753 19.4435 36.7997 24.4537 36.7997ZM44.9775 94.5258H3.90624V81.0493C3.90624 79.4341 5.22078 78.1196 6.83592 78.1196H42.0478C43.6637 78.1196 44.9775 79.4341 44.9775 81.0493V94.5258ZM8.86534 74.2134L13.726 53.2051C16.0682 56.6276 20.0027 58.8783 24.4537 58.8783C28.9054 58.8783 32.8399 56.6269 35.1821 53.2043L40.0428 74.2134H8.86534ZM65.5829 19.452C67.3422 17.6926 68.3417 15.4588 68.5858 13.1593L85.8976 30.4703C87.7233 32.296 87.7233 35.2662 85.8976 37.0911C85.0134 37.9753 83.8377 38.4629 82.5872 38.4629C81.3368 38.4629 80.1611 37.9753 79.2769 37.0911L63.6107 21.4249L65.5829 19.452Z" fill="#3ECC29"/>
<path d="M24.4531 47.8386C24.9689 47.8386 25.4709 47.6296 25.834 47.2664C26.1995 46.9033 26.4062 46.3997 26.4062 45.8855C26.4062 45.372 26.1995 44.8677 25.834 44.5046C25.4709 44.1414 24.9689 43.9324 24.4531 43.9324C23.9397 43.9324 23.4354 44.1414 23.0722 44.5046C22.709 44.8677 22.5 45.372 22.5 45.8855C22.5 46.3997 22.709 46.9033 23.0722 47.2664C23.4361 47.6296 23.9397 47.8386 24.4531 47.8386Z" fill="#3ECC29"/>
<path d="M56.8163 13.3874C57.1795 13.7528 57.6838 13.9596 58.1973 13.9596C58.713 13.9596 59.215 13.7528 59.5782 13.3874C59.9436 13.0242 60.1519 12.5207 60.1519 12.0065C60.1519 11.493 59.9436 10.9895 59.5782 10.6263C59.215 10.2624 58.713 10.0533 58.1973 10.0533C57.6838 10.0533 57.1795 10.2624 56.8163 10.6263C56.4532 10.9895 56.2441 11.493 56.2441 12.0065C56.2441 12.5207 56.4532 13.0242 56.8163 13.3874Z" fill="#3ECC29"/>
<path d="M28.7726 84.3696H20.1133C19.0345 84.3696 18.1602 85.2447 18.1602 86.3227C18.1602 87.4015 19.0345 88.2758 20.1133 88.2758H28.7726C29.8514 88.2758 30.7258 87.4015 30.7258 86.3227C30.7258 85.2447 29.8514 84.3696 28.7726 84.3696Z" fill="#3ECC29"/>
<path d="M10.9688 84.3696C10.453 84.3696 9.95099 84.5786 9.58554 84.9425C9.22238 85.3057 9.01562 85.8092 9.01562 86.3227C9.01562 86.8369 9.22238 87.3405 9.58554 87.7036C9.95099 88.0675 10.453 88.2758 10.9688 88.2758C11.4822 88.2758 11.9865 88.0675 12.3497 87.7036C12.7128 87.3405 12.9219 86.8369 12.9219 86.3227C12.9219 85.8092 12.7128 85.3057 12.3497 84.9425C11.9865 84.5786 11.4822 84.3696 10.9688 84.3696Z" fill="#3ECC29"/>
<path d="M37.916 84.3696C37.4026 84.3696 36.899 84.5786 36.5351 84.9425C36.1719 85.3057 35.9629 85.8092 35.9629 86.3227C35.9629 86.8369 36.1719 87.3405 36.5351 87.7036C36.899 88.0675 37.4026 88.2758 37.916 88.2758C38.4302 88.2758 38.9338 88.0675 39.2969 87.7036C39.6601 87.3405 39.8691 86.8369 39.8691 86.3227C39.8691 85.8092 39.6601 85.3057 39.2969 84.9425C38.9338 84.5786 38.4302 84.3696 37.916 84.3696Z" fill="#3ECC29"/>
<path d="M82.5781 35.743C83.0939 35.743 83.5959 35.5339 83.959 35.1708C84.3222 34.8076 84.5312 34.3033 84.5312 33.7899C84.5312 33.2764 84.3222 32.7721 83.959 32.4089C83.5959 32.0458 83.0931 31.8367 82.5781 31.8367C82.0647 31.8367 81.5604 32.0458 81.1972 32.4089C80.834 32.7721 80.625 33.2764 80.625 33.7899C80.625 34.3033 80.834 34.8076 81.1972 35.1708C81.5604 35.5339 82.0647 35.743 82.5781 35.743Z" fill="#3ECC29"/>
<path d="M89.2227 94.5258C88.7069 94.5258 88.2049 94.7349 87.8417 95.0988C87.4763 95.4619 87.2695 95.9655 87.2695 96.4789C87.2695 96.9932 87.4763 97.4967 87.8417 97.8599C88.2049 98.2238 88.7084 98.4321 89.2227 98.4321C89.7361 98.4321 90.2397 98.2238 90.6036 97.8599C90.9667 97.4967 91.1758 96.9932 91.1758 96.4789C91.1758 95.9655 90.9667 95.4619 90.6036 95.0988C90.2397 94.7349 89.7361 94.5258 89.2227 94.5258Z" fill="#3ECC29"/>
</svg>
