<svg width="100" height="100" viewBox="0 0 100 100" fill="none" xmlns="http://www.w3.org/2000/svg">
<path d="M97.6998 0H13.2248C12.7764 0 12.3354 0.177539 12.0475 0.521094C11.4182 1.27207 11.6982 2.34375 12.4717 2.76016L32.1748 13.3695C32.1768 13.3705 32.1781 13.3725 32.1785 13.3748L36.766 43.957C36.9303 45.0166 38.1885 45.5598 39.0676 44.9357L58.31 31.2635C58.3121 31.2619 58.315 31.2617 58.3176 31.2631L71.9537 38.7629C72.6041 39.1203 73.4424 38.9238 73.8658 38.3148L88.2037 17.7043C88.6666 17.0389 88.5023 16.124 87.8369 15.6611C87.1713 15.198 86.257 15.3625 85.7937 16.0279L72.2143 35.5488C72.2121 35.5518 72.2082 35.5527 72.2051 35.551L45.0109 20.5943C45.0055 20.5914 45.0062 20.5834 45.0121 20.5812L93.9613 4.26484C93.9678 4.26269 93.9732 4.27012 93.9693 4.27559L89.9111 10.109C89.4496 10.7723 89.557 11.7086 90.2086 12.1863C90.8767 12.6762 91.8119 12.5168 92.2822 11.8414L98.9158 2.30586C98.9572 2.2459 98.9947 2.18086 99.0269 2.11504C99.5035 1.14785 98.7689 0 97.6998 0ZM55.4469 29.6842C55.4514 29.6867 55.4518 29.6934 55.4475 29.6963L40.1314 40.5785C40.1264 40.582 40.1195 40.5779 40.1203 40.5717L42.5186 22.5848C42.5191 22.5799 42.5246 22.5771 42.5291 22.5795L55.4469 29.6842ZM78.9494 6.17441L40.8844 18.8627C40.3596 19.0385 39.9668 19.5119 39.8936 20.0611L38.1383 33.225C38.1371 33.2332 38.1254 33.2332 38.1242 33.2252L35.1863 13.6387C35.1857 13.6348 35.1883 13.6312 35.1922 13.6307L78.9459 6.16055C78.9545 6.15898 78.9576 6.17148 78.9494 6.17441ZM80.3094 2.94961L33.7738 10.8947C33.7723 10.8949 33.7707 10.8947 33.7693 10.8939L19.0141 2.94902C19.0076 2.94551 19.01 2.93555 19.0174 2.93555H80.3082C80.317 2.93555 80.318 2.94824 80.3094 2.94961Z" fill="#3ECC29"/>
<path d="M27.174 58.7422C26.7623 58.7482 26.3429 58.765 25.9279 58.792C25.1189 58.8443 24.5056 59.5424 24.5578 60.3514C24.6078 61.1281 25.2537 61.7246 26.0211 61.7246C26.0529 61.7246 26.0849 61.7236 26.1172 61.7215C26.4841 61.6979 26.8545 61.683 27.2179 61.6775C28.0285 61.6654 28.6758 60.9984 28.6636 60.1881C28.6515 59.3777 27.9806 58.7256 27.174 58.7422Z" fill="#3ECC29"/>
<path d="M34.3859 59.777C33.6248 59.5299 32.8254 59.3236 32.0101 59.1639C31.2152 59.0074 30.4435 59.5262 30.2875 60.3219C30.1314 61.1172 30.65 61.8887 31.4455 62.0447C32.1457 62.182 32.8303 62.3586 33.4799 62.5694C34.2412 62.816 35.082 62.3871 35.3291 61.6264C35.5791 60.8551 35.1566 60.0272 34.3859 59.777Z" fill="#3ECC29"/>
<path d="M19.1049 73.3613C18.9902 72.692 18.9238 72.0018 18.9078 71.3098C18.8891 70.4992 18.2149 69.8586 17.4065 69.8764C16.5961 69.8951 15.9543 70.5674 15.9731 71.3777C15.9924 72.2129 16.0727 73.0471 16.2115 73.8572C16.3465 74.6451 17.1176 75.1914 17.9061 75.0557C18.7053 74.9189 19.2418 74.1601 19.1049 73.3613Z" fill="#3ECC29"/>
<path d="M26.2636 82.426C25.6433 82.206 25.0398 81.9215 24.4701 81.5803C23.7744 81.1641 22.8732 81.3902 22.4566 82.0857C22.0404 82.7812 22.2666 83.6826 22.9621 84.0992C23.6986 84.5398 24.4789 84.9078 25.2824 85.1928C26.0769 85.4744 26.9672 85.0072 27.189 84.1955C27.389 83.464 26.9777 82.6793 26.2636 82.426Z" fill="#3ECC29"/>
<path d="M28.1704 53.0701C27.6665 52.4352 26.7431 52.3291 26.1083 52.8328C25.4855 53.327 24.8747 53.8522 24.2935 54.3941C23.7003 54.9467 23.6675 55.8754 24.2198 56.4685C24.7646 57.0535 25.7089 57.0871 26.2941 56.542C26.8191 56.0529 27.3706 55.5785 27.9331 55.1324C28.5681 54.6283 28.6743 53.7053 28.1704 53.0701Z" fill="#3ECC29"/>
<path d="M21.5006 78.9238C21.0928 78.3965 20.7244 77.8238 20.4059 77.2217C20.0268 76.5053 19.1383 76.232 18.4221 76.6109C17.7057 76.9902 17.4322 77.8783 17.8113 78.5947C18.2082 79.3449 18.6684 80.0598 19.1785 80.7195C19.7063 81.4022 20.7406 81.476 21.3613 80.8758C21.8916 80.3627 21.9518 79.507 21.5006 78.9238Z" fill="#3ECC29"/>
<path d="M19.2999 63.3322C18.5542 63.0144 17.6921 63.3615 17.3744 64.1072C17.024 64.9291 16.7376 65.7381 16.5456 66.4461C16.3335 67.2285 16.7958 68.0346 17.5781 68.2469C17.7064 68.2816 17.8357 68.2982 17.9628 68.2982C18.6093 68.2982 19.2015 67.8679 19.3785 67.2142C19.4882 66.8098 19.698 66.142 20.0747 65.2576C20.3927 64.5119 20.0458 63.6498 19.2999 63.3322Z" fill="#3ECC29"/>
<path d="M23.1221 57.6678C22.4824 57.1691 21.5604 57.2834 21.0621 57.9229C20.5711 58.5525 20.101 59.208 19.6655 59.8709C19.2199 60.5482 19.408 61.4584 20.0854 61.9037C20.7541 62.3436 21.6787 62.1518 22.1182 61.4838C22.5108 60.8867 22.9344 60.2959 23.3772 59.7281C23.8756 59.0887 23.7614 58.1662 23.1221 57.6678Z" fill="#3ECC29"/>
<path d="M40.7999 63.6269C40.2235 63.0287 39.569 62.4709 38.8546 61.9689C38.1915 61.5027 37.2761 61.6627 36.8099 62.3262C36.3439 62.9894 36.5038 63.9049 37.1671 64.3709C37.7284 64.7652 38.2394 65.2002 38.6856 65.6637C39.2407 66.2396 40.1849 66.2572 40.761 65.7023C41.3448 65.1398 41.3622 64.2107 40.7999 63.6269Z" fill="#3ECC29"/>
<path d="M33.9456 83.8502C33.7757 83.0574 32.996 82.5531 32.2028 82.7227C31.5911 82.8537 30.9503 82.9404 30.2962 82.9807L30.1821 82.9871C29.3725 83.0273 28.7487 83.7162 28.789 84.526C28.8278 85.3109 29.4765 85.9209 30.2536 85.9209C30.278 85.9209 30.303 85.9203 30.3276 85.9191L30.4772 85.9107C31.2757 85.8621 32.0632 85.7551 32.8183 85.5934C33.6108 85.4231 34.1155 84.643 33.9456 83.8502Z" fill="#3ECC29"/>
<path d="M43.9549 70.6359C43.8852 69.7463 43.7225 68.8861 43.4711 68.0793C43.2299 67.3053 42.4066 66.8732 41.633 67.1146C40.859 67.3557 40.4274 68.1787 40.6684 68.9527C40.8547 69.5502 40.9756 70.1936 41.0281 70.8646C41.0904 71.6621 41.8084 72.276 42.6059 72.2137C43.4031 72.1512 44.0172 71.4334 43.9549 70.6359Z" fill="#3ECC29"/>
<path d="M42.409 73.848C41.6313 73.6187 40.8152 74.0625 40.5854 74.8398C40.3941 75.4875 40.1461 76.1227 39.8484 76.7279C39.4904 77.4551 39.79 78.335 40.5176 78.6928C41.2355 79.0463 42.1295 78.741 42.4824 78.0236C42.8535 77.2693 43.1625 76.4779 43.4008 75.6713C43.6305 74.8939 43.1863 74.0775 42.409 73.848Z" fill="#3ECC29"/>
<path d="M34.1471 49.7719C33.8024 49.0379 32.9281 48.7227 32.1945 49.0674C31.474 49.4057 30.76 49.7744 30.0727 50.1633C29.5238 50.4736 29.2299 51.1207 29.3578 51.7383C29.4973 52.4125 30.1084 52.909 30.7967 52.909C31.0416 52.909 31.2897 52.8477 31.518 52.7186C32.1412 52.366 32.7889 52.0314 33.4426 51.7244C34.1764 51.3797 34.4918 50.5055 34.1471 49.7719Z" fill="#3ECC29"/>
<path d="M39.554 80.023C38.9956 79.4353 38.0669 79.4111 37.479 79.9693C36.9938 80.4301 36.4647 80.8463 35.9061 81.207C35.2251 81.6469 35.0296 82.5553 35.4692 83.2363C35.9026 83.908 36.8263 84.1074 37.4985 83.6732C38.2099 83.2139 38.8835 82.684 39.5005 82.0981C40.0882 81.5398 40.1122 80.6109 39.554 80.023Z" fill="#3ECC29"/>
<path d="M39.6348 48.057C39.4256 47.2742 38.6209 46.8094 37.8379 47.018C37.442 47.1238 37.0455 47.2371 36.6596 47.3545C35.9242 47.5787 35.4797 48.3603 35.6619 49.107C35.8592 49.915 36.7197 50.4047 37.5156 50.1625C37.8692 50.0547 38.2322 49.951 38.5955 49.8539C39.3783 49.6447 39.8438 48.8402 39.6348 48.057Z" fill="#3ECC29"/>
<path d="M6.64347 97.8627C6.47316 97.533 6.30793 97.1961 6.15187 96.8615C5.80949 96.127 4.93605 95.809 4.20148 96.1514C3.46691 96.4938 3.14875 97.367 3.49133 98.1018C3.66398 98.4721 3.84679 98.8445 4.03488 99.2088C4.40168 99.9193 5.3007 100.207 6.01222 99.84C6.73254 99.4685 7.01515 98.5832 6.64347 97.8627Z" fill="#3ECC29"/>
<path d="M4.69621 92.9662C4.50715 92.3002 4.34445 91.6215 4.2132 90.9486C4.05793 90.1531 3.28762 89.6344 2.49133 89.7894C1.69582 89.9447 1.17687 90.7156 1.33215 91.5113C1.47902 92.2645 1.66086 93.0236 1.87238 93.7684C2.09074 94.5375 2.91574 94.9983 3.68527 94.7791C4.46535 94.5576 4.91789 93.7459 4.69621 92.9662Z" fill="#3ECC29"/>
<path d="M2.44003 83.202C1.63261 83.152 0.933586 83.7645 0.881829 84.5733C0.84511 85.1486 0.82636 85.732 0.82636 86.3074C0.82636 86.8354 0.807219 87.3488 1.15527 87.7822C1.43788 88.134 1.87909 88.343 2.33163 88.3311C2.78046 88.3215 3.20702 88.1014 3.47577 87.742C3.80136 87.3066 3.76191 86.8227 3.76191 86.3072C3.76191 85.7941 3.77851 85.2736 3.81132 84.7602C3.86308 83.9514 3.24902 83.2537 2.44003 83.202Z" fill="#3ECC29"/>
<path d="M4.03409 76.81C3.26182 76.5605 2.43545 76.9846 2.18643 77.7559C1.94952 78.49 1.74014 79.241 1.56475 79.9879C1.37901 80.7768 1.86846 81.5668 2.65752 81.7524C3.43624 81.9356 4.23917 81.4379 4.42217 80.6596C4.57979 79.99 4.76749 79.3164 4.97999 78.6578C5.22881 77.8861 4.80557 77.0588 4.03409 76.81Z" fill="#3ECC29"/>
<path d="M11.5207 66.0914C10.9608 65.5049 10.0322 65.483 9.44532 66.0426C9.29513 66.1857 9.1463 66.3314 8.99806 66.4793C8.60157 66.876 8.20978 67.2953 7.83341 67.726C7.30001 68.3361 7.36212 69.2635 7.97228 69.7971C8.57423 70.3234 9.5172 70.2602 10.0434 69.6582C10.3768 69.2768 10.7236 68.9057 11.0738 68.5553C11.2053 68.4238 11.3381 68.2941 11.4717 68.1668C12.0584 67.6068 12.0801 66.6779 11.5207 66.0914Z" fill="#3ECC29"/>
<path d="M7.10568 70.9811C6.41526 70.5566 5.51135 70.7723 5.08655 71.4625C4.68459 72.1162 4.30354 72.7955 3.95354 73.4813C3.58518 74.2033 3.87209 75.0873 4.59436 75.4555C5.30764 75.8194 6.20549 75.527 6.56858 74.8147C6.88303 74.1983 7.22561 73.5875 7.58693 73.0002C8.01174 72.3096 7.79611 71.4057 7.10568 70.9811Z" fill="#3ECC29"/>
<path d="M16.1428 62.9834C15.7271 62.2877 14.826 62.0605 14.1301 62.4762C13.7762 62.6875 13.4224 62.9103 13.0783 63.1387C12.4029 63.5871 12.2185 64.4979 12.6668 65.1733C13.1088 65.8395 14.0344 66.0272 14.7014 65.5848C15.007 65.382 15.3211 65.184 15.6355 64.9963C16.3314 64.5805 16.5586 63.6793 16.1428 62.9834Z" fill="#3ECC29"/>
</svg>
