<svg width="50" height="50" viewBox="0 0 50 50" fill="none" xmlns="http://www.w3.org/2000/svg">
<g clip-path="url(#clip0)">
<path d="M35.4844 8.06458H37.0973V9.67748H35.4844V8.06458Z" fill="#3ECC29"/>
<path d="M49.7637 5.88143L48.1508 4.26852C48 4.11692 47.7945 4.03226 47.5806 4.03226H40.3226V0.806452C40.3226 0.361486 39.9611 0 39.5161 0H33.0645C32.6195 0 32.2581 0.361486 32.2581 0.806452V4.03226H30.1726L28.796 2.65562C28.6452 2.50402 28.4396 2.41935 28.2258 2.41935H25C24.555 2.41935 24.1935 2.78084 24.1935 3.22581V11.2903H20.1613C13.7636 11.2903 8.52326 16.2861 8.10547 22.5806H5.64516C5.2002 22.5806 4.83871 22.9421 4.83871 23.3871V25C4.83871 25.2138 4.92337 25.4194 5.07498 25.5702L6.11769 26.6129L0.236265 32.4943C0.162235 32.5676 0.103169 32.6566 0.0622165 32.7542C0.0216577 32.8515 0 32.9566 0 33.0645V42.7419C0 42.8498 0.0216577 42.955 0.063004 43.0522C0.103957 43.1499 0.163023 43.2389 0.237053 43.3121L6.68867 49.7637C6.83869 49.9153 7.04424 50 7.25806 50H18.5484C18.7622 50 18.9678 49.9153 19.1186 49.7637L25.5702 43.3121C25.6442 43.2389 25.7033 43.1499 25.7442 43.0522C25.7848 42.955 25.8065 42.8498 25.8065 42.7419V33.0645C25.8065 32.9566 25.7848 32.8515 25.7434 32.7542C25.7025 32.6566 25.6434 32.5676 25.5694 32.4943L19.6888 26.6129L20.7315 25.5702C20.8831 25.4194 20.9677 25.2138 20.9677 25V23.3871C20.9677 22.9421 20.6063 22.5806 20.1613 22.5806H17.7419C17.7419 20.3574 19.5509 18.5484 21.7742 18.5484H24.1935V20.9677C24.1935 21.4127 24.555 21.7742 25 21.7742H28.2258C28.4396 21.7742 28.6452 21.6895 28.796 21.5379L30.1726 20.1613H47.5806C47.7945 20.1613 48 20.0766 48.1508 19.925L49.7637 18.3121C49.9153 18.1613 50 17.9558 50 17.7419V6.45161C50 6.23779 49.9153 6.03224 49.7637 5.88143ZM18.2145 27.4194L23.0532 32.2581H2.75328L7.59199 27.4194H18.2145ZM24.1935 41.9355H1.6129V40.3226H24.1935V41.9355ZM1.6129 38.7097V37.0968H24.1935V38.7097H1.6129ZM1.6129 33.871H24.1935V35.4839H1.6129V33.871ZM18.2145 48.3871H7.59199L2.75328 43.5484H23.0532L18.2145 48.3871ZM19.3548 24.1935V24.6661L18.2145 25.8065H7.59199L6.45161 24.6661V24.1935H19.3548ZM21.7742 16.9355C18.6614 16.9355 16.129 19.4679 16.129 22.5806H9.71837C10.1322 17.1765 14.6524 12.9032 20.1613 12.9032H24.1935V16.9355H21.7742ZM33.871 1.6129H38.7097V8.87097C38.7097 10.2047 37.624 11.2903 36.2903 11.2903C34.9566 11.2903 33.871 10.2047 33.871 8.87097V1.6129ZM25.8065 4.03226H27.4194V20.1613H25.8065V4.03226ZM29.8387 18.5484C29.6249 18.5484 29.4193 18.633 29.2685 18.7847L29.0323 19.0209V5.17263L29.2685 5.4089C29.4193 5.5605 29.6249 5.64516 29.8387 5.64516H32.2581V8.87097C32.2581 11.0942 34.0671 12.9032 36.2903 12.9032C38.5136 12.9032 40.3226 11.0942 40.3226 8.87097V5.64516H45.1613V18.5484H29.8387ZM48.3871 17.408L47.2467 18.5484H46.7742V5.64516H47.2467L48.3871 6.78553V17.408Z" fill="#3ECC29"/>
<path d="M4.83887 19.3549H6.45177V20.9678H4.83887V19.3549Z" fill="#3ECC29"/>
<path d="M1.61328 16.129H3.22618V17.7419H1.61328V16.129Z" fill="#3ECC29"/>
<path d="M4.83887 12.9033H6.45177V14.5162H4.83887V12.9033Z" fill="#3ECC29"/>
<path d="M8.06445 9.67749H9.67736V11.2904H8.06445V9.67749Z" fill="#3ECC29"/>
<path d="M3.22559 7.25818H4.83849V8.87108H3.22559V7.25818Z" fill="#3ECC29"/>
<path d="M1.61328 10.4839H3.22618V12.0968H1.61328V10.4839Z" fill="#3ECC29"/>
<path d="M49.1935 29.8386H47.2727L45.0758 25.4461C44.9727 25.2393 44.7848 25.0862 44.5612 25.0275C44.3371 24.9692 44.1001 25.0078 43.9063 25.1354L42.2469 26.2419L40.2363 22.2203C39.963 21.6733 39.0668 21.6733 38.7935 22.2203L36.7829 26.2419L35.1236 25.1354C34.9298 25.0062 34.692 24.9676 34.4687 25.0275C34.245 25.0862 34.058 25.2393 33.954 25.4461L31.7595 29.8386H29.8387C29.3937 29.8386 29.0322 30.2001 29.0322 30.6451V33.8709C29.0322 34.3159 29.3937 34.6774 29.8387 34.6774H30.6861C30.9298 37.3629 32.3734 39.7039 34.4766 41.162L29.1783 48.7304C29.0055 48.9765 28.9846 49.2982 29.1232 49.5652C29.2622 49.8322 29.5378 49.9999 29.8387 49.9999H34.6774C34.996 49.9999 35.2846 49.8121 35.4146 49.5207L38.458 42.6726C38.8057 42.7143 39.1574 42.7419 39.5161 42.7419C39.8748 42.7419 40.2265 42.7143 40.5742 42.6726L43.6177 49.5207C43.7476 49.8121 44.0363 49.9999 44.3548 49.9999H49.1935C49.4944 49.9999 49.77 49.8322 49.909 49.566C50.0476 49.299 50.0268 48.9773 49.8539 48.7312L44.5557 41.1628C46.6588 39.7047 48.1024 37.3629 48.3461 34.6781H49.1935C49.6385 34.6781 50 34.317 50 33.8717V30.6459C50 30.2001 49.6385 29.8386 49.1935 29.8386ZM34.9905 26.9838L36.6498 28.0903C36.8428 28.2187 37.0806 28.258 37.3047 28.1982C37.5283 28.1395 37.7154 27.9863 37.8193 27.7796L39.5161 24.3837L41.2137 27.7796C41.3168 27.9863 41.5047 28.1395 41.7283 28.1982C41.9524 28.2588 42.1902 28.2187 42.3832 28.0903L44.0426 26.9838L45.47 29.8386H33.563L34.9905 26.9838ZM34.1533 48.387H31.387L35.8879 41.9579C36.1993 42.0984 36.5167 42.2256 36.8451 42.3296L34.1533 48.387ZM47.6452 48.387H44.8789L42.1863 42.3296C42.5155 42.2256 42.8329 42.0984 43.1436 41.9579L47.6452 48.387ZM39.5161 41.129C35.7871 41.129 32.7089 38.3009 32.3057 34.6774H46.7265C46.3233 38.3009 43.2452 41.129 39.5161 41.129ZM48.3871 33.0645H30.6451V31.4515H48.3871V33.0645Z" fill="#3ECC29"/>
</g>
<defs>
<clipPath id="clip0">
<rect width="50" height="50" fill="white"/>
</clipPath>
</defs>
</svg>
