<svg width="80" height="80" viewBox="0 0 80 80" fill="none" xmlns="http://www.w3.org/2000/svg">
<path d="M41.0966 45.2719C41.0966 46.0025 40.5043 46.5949 39.7736 46.5949C39.043 46.5949 38.4507 46.0025 38.4507 45.2719C38.4507 44.5413 39.043 43.949 39.7736 43.949C40.5043 43.949 41.0966 44.5413 41.0966 45.2719Z" fill="#3ECC29"/>
<path d="M45.2107 46.3558C44.8289 45.7421 44.0369 45.529 43.3987 45.8675C43.0951 46.0445 42.8742 46.3345 42.7844 46.6743C42.6952 47.0141 42.745 47.3752 42.922 47.6788L44.5757 50.5638L42.287 54.5327H37.7096L35.4208 50.5638L35.5397 50.3525C35.9002 49.7162 35.6818 48.9081 35.0507 48.5399C34.4157 48.2001 33.6263 48.4146 33.251 49.0296L32.7355 49.9023C32.51 50.3151 32.51 50.8131 32.7355 51.2252L35.7916 56.5171C36.0287 56.928 36.468 57.1806 36.9421 57.1786H43.0544C43.526 57.1825 43.962 56.9293 44.192 56.5171L45.2772 54.6386C45.2992 54.6154 45.3173 54.5889 45.3302 54.5592L47.2481 51.2252C47.4865 50.8163 47.4865 50.3112 47.2481 49.9023L45.2107 46.3558Z" fill="#3ECC29"/>
<path d="M24.8774 56.4513C24.2515 56.8175 24.0338 57.6173 24.3878 58.2503V58.2626L26.0544 61.1476L23.7657 65.1165H19.1883L16.8995 61.1476L17.0184 60.9363C17.1935 60.6314 17.2413 60.2703 17.1508 59.9305C17.0597 59.5927 16.8356 59.3065 16.5294 59.1366C15.8983 58.7871 15.1044 58.9977 14.7297 59.6146L14.2271 60.4874C13.9887 60.8963 13.9887 61.4014 14.2271 61.8103L17.2703 67.1022C17.5074 67.5131 17.9467 67.7656 18.4208 67.7637H24.5331C25.0079 67.7656 25.4472 67.5131 25.6843 67.1022L26.7559 65.2237C26.7779 65.2005 26.796 65.174 26.8089 65.1443L28.7268 61.8103C28.9652 61.4014 28.9652 60.8963 28.7268 60.4874L26.6894 56.9409C26.3076 56.3266 25.5163 56.1128 24.8774 56.4513Z" fill="#3ECC29"/>
<path d="M22.5751 55.8557C22.5751 56.5863 21.9828 57.1786 21.2522 57.1786C20.5216 57.1786 19.9292 56.5863 19.9292 55.8557C19.9292 55.1251 20.5216 54.5327 21.2522 54.5327C21.9828 54.5327 22.5751 55.1251 22.5751 55.8557Z" fill="#3ECC29"/>
<path d="M16.5292 37.9562C15.8942 37.6164 15.1048 37.8308 14.7295 38.4458L14.214 39.3185C13.9886 39.7313 13.9886 40.2294 14.214 40.6415L17.2701 45.9334C17.5072 46.3442 17.9465 46.5968 18.4206 46.5949H24.5329C25.0045 46.5988 25.4405 46.3455 25.6705 45.9334L26.7822 44.0155C26.7952 44.0019 26.8087 43.989 26.8087 43.9754L28.7266 40.6415C28.965 40.2326 28.965 39.7274 28.7266 39.3185L26.6892 35.7721C26.3074 35.1584 25.5155 34.9452 24.8772 35.2837C24.2455 35.6513 24.0271 36.4588 24.3876 37.0951C24.4005 37.0951 24.4005 37.1093 24.4005 37.1093L26.0542 39.98L23.7655 43.9489H19.1881L16.8994 39.98L17.0182 39.7688C17.3787 39.1325 17.1603 38.3244 16.5292 37.9562Z" fill="#3ECC29"/>
<path d="M22.5751 34.6882C22.5751 35.4188 21.9828 36.0112 21.2522 36.0112C20.5216 36.0112 19.9292 35.4188 19.9292 34.6882C19.9292 33.9576 20.5216 33.3652 21.2522 33.3652C21.9828 33.3652 22.5751 33.9576 22.5751 34.6882Z" fill="#3ECC29"/>
<path d="M53.5727 37.9562C52.9377 37.6164 52.1483 37.8308 51.773 38.4458L51.2575 39.3185C51.032 39.7313 51.032 40.2294 51.2575 40.6415L54.3136 45.9334C54.5507 46.3442 54.9899 46.5968 55.4641 46.5949H61.5764C62.0479 46.5988 62.484 46.3455 62.714 45.9334L63.8257 44.0155C63.8386 44.0019 63.8522 43.989 63.8522 43.9754L65.7701 40.6415C66.0085 40.2326 66.0085 39.7274 65.7701 39.3185L63.7327 35.7721C63.3509 35.1584 62.5589 34.9452 61.9207 35.2837C61.6171 35.4607 61.3962 35.7508 61.3064 36.0906C61.2172 36.4303 61.267 36.7915 61.444 37.0951V37.1093L63.0977 39.98L60.809 43.9489H56.2315L53.9428 39.98L54.0617 39.7688C54.4221 39.1325 54.2038 38.3244 53.5727 37.9562Z" fill="#3ECC29"/>
<path d="M59.6181 34.6882C59.6181 35.4188 59.0257 36.0112 58.2951 36.0112C57.5645 36.0112 56.9722 35.4188 56.9722 34.6882C56.9722 33.9576 57.5645 33.3652 58.2951 33.3652C59.0257 33.3652 59.6181 33.9576 59.6181 34.6882Z" fill="#3ECC29"/>
<path d="M41.0966 24.1042C41.0966 24.8348 40.5043 25.4272 39.7736 25.4272C39.043 25.4272 38.4507 24.8348 38.4507 24.1042C38.4507 23.3736 39.043 22.7812 39.7736 22.7812C40.5043 22.7812 41.0966 23.3736 41.0966 24.1042Z" fill="#3ECC29"/>
<path d="M35.7918 35.3496C36.0289 35.7605 36.4682 36.0131 36.9423 36.0111H43.0546C43.5294 36.0131 43.9687 35.7605 44.2057 35.3496L47.2619 30.0578C47.4867 29.6456 47.4867 29.1476 47.2619 28.7348L45.2109 25.1883C44.8291 24.5747 44.0371 24.3615 43.3989 24.7C43.0979 24.8789 42.8795 25.1683 42.7897 25.5068C42.6961 25.8401 42.7387 26.1974 42.9092 26.499V26.5113L44.5759 29.3963L42.2872 33.3652H37.7097L35.421 29.3963L35.5399 29.185C35.9003 28.552 35.6814 27.7477 35.0509 27.384C34.4198 27.0346 33.6258 27.2452 33.2512 27.8621L32.7486 28.7348C32.5102 29.1437 32.5102 29.6489 32.7486 30.0578L35.7918 35.3496Z" fill="#3ECC29"/>
<path d="M59.6181 13.5205C59.6181 14.2511 59.0257 14.8435 58.2951 14.8435C57.5645 14.8435 56.9722 14.2511 56.9722 13.5205C56.9722 12.7899 57.5645 12.1975 58.2951 12.1975C59.0257 12.1975 59.6181 12.7899 59.6181 13.5205Z" fill="#3ECC29"/>
<path d="M54.3267 24.7659C54.5567 25.178 54.9927 25.4313 55.4643 25.4274H61.5766C62.0501 25.4248 62.4874 25.1742 62.7277 24.7659L65.7839 19.474C66.0087 19.0619 66.0087 18.5638 65.7839 18.1511L63.7329 14.6046C63.3511 13.9909 62.5591 13.7778 61.9209 14.1162C61.6199 14.2952 61.4015 14.5846 61.3117 14.9231C61.2148 15.2616 61.2633 15.6253 61.4441 15.9276L63.0979 18.8125L60.8091 22.7814H56.2317L53.943 18.8125L54.0619 18.6013C54.2369 18.2964 54.2847 17.9353 54.1943 17.5955C54.1032 17.2577 53.879 16.9715 53.5729 16.8016C52.9417 16.4521 52.1478 16.6627 51.7731 17.2796L51.2706 18.1523C51.0322 18.5612 51.0322 19.0664 51.2706 19.4753L54.3267 24.7659Z" fill="#3ECC29"/>
<path d="M14.6372 6.90574C14.6372 7.63634 14.0448 8.22871 13.3142 8.22871C12.5836 8.22871 11.9912 7.63634 11.9912 6.90574C11.9912 6.17513 12.5836 5.58276 13.3142 5.58276C14.0448 5.58276 14.6372 6.17513 14.6372 6.90574Z" fill="#3ECC29"/>
<path d="M9.34527 18.1509C9.57524 18.5631 10.0113 18.8163 10.4828 18.8124H16.5951C17.0686 18.8098 17.506 18.5592 17.7463 18.1509L20.7888 12.859C21.0272 12.4501 21.0272 11.945 20.7888 11.5361L18.7514 7.98962C18.3696 7.37594 17.5777 7.16276 16.9394 7.50126C16.3193 7.87205 16.1035 8.66661 16.4498 9.30032V9.31259L18.1164 12.1975L15.8277 16.1665H11.2503L8.96155 12.1975L9.08041 11.9863C9.44087 11.35 9.22253 10.5419 8.59141 10.1737C7.95641 9.8339 7.16702 10.0484 6.7917 10.6633L6.28913 11.5361C6.05076 11.945 6.05076 12.4501 6.28913 12.859L9.34527 18.1509Z" fill="#3ECC29"/>
<path d="M79.8203 67.1009L74.3959 57.7161L77.3067 54.8053C77.808 54.2866 77.8009 53.461 77.2906 52.9507C76.7803 52.4404 75.9547 52.4333 75.436 52.9346L72.5252 55.8557H60.3542C59.8814 55.8557 59.4447 56.1083 59.2083 56.5172L53.4732 66.4395H49.2595C48.5289 66.4395 47.9365 67.0318 47.9365 67.7624C47.9365 68.493 48.5289 69.0854 49.2595 69.0854H53.4732L59.2018 79.0077C59.4382 79.4172 59.8749 79.6692 60.3471 79.6692H72.5691C73.042 79.6692 73.4786 79.4172 73.7144 79.0077L79.8254 68.4239C80.0599 68.0137 80.058 67.5092 79.8203 67.1009ZM71.8056 77.0232H61.1107L55.8466 67.9039C55.884 67.8135 55.884 67.712 55.8466 67.621L61.1107 58.5016H71.8056L77.1517 67.7624L71.8056 77.0232Z" fill="#3ECC29"/>
<path d="M69.8587 63.066C69.5538 63.2411 69.3341 63.5324 69.2495 63.8728C69.1526 64.2113 69.2011 64.575 69.3819 64.8773V64.8916L71.0357 67.7623L68.7469 71.7312H64.1695L61.8808 67.7623L61.9997 67.5511C62.1747 67.2462 62.2225 66.8851 62.1321 66.5453C61.9926 66.0304 61.5565 65.6493 61.0275 65.5802C60.4984 65.5104 59.979 65.7662 59.7109 66.2281L59.1955 67.1008C58.97 67.5136 58.97 68.0117 59.1955 68.4238L62.2516 73.7157C62.4887 74.1265 62.9279 74.3791 63.4021 74.3772H69.5144C69.9892 74.3791 70.4284 74.1265 70.6655 73.7157L73.7217 68.4238C73.9465 68.0117 73.9465 67.5136 73.7217 67.1008L71.6707 63.5544C71.2928 62.9355 70.4963 62.7211 69.8587 63.066Z" fill="#3ECC29"/>
<path d="M67.5561 62.4704C67.5561 63.201 66.9637 63.7934 66.2331 63.7934C65.5025 63.7934 64.9102 63.201 64.9102 62.4704C64.9102 61.7398 65.5025 61.1475 66.2331 61.1475C66.9637 61.1475 67.5561 61.7398 67.5561 62.4704Z" fill="#3ECC29"/>
<path d="M59.8433 51.8868C60.5739 51.8868 61.1662 51.2944 61.1662 50.5638C61.1662 49.8332 60.5739 49.2408 59.8433 49.2408H52.9836L47.6374 39.9801L52.9836 30.7193H64.5874L67.5072 33.6391C68.0266 34.1404 68.8515 34.1333 69.3618 33.6229C69.8721 33.1126 69.8792 32.2877 69.378 31.7683L66.4678 28.8582L71.5052 20.1355H78.3649C79.0955 20.1355 79.6878 19.5431 79.6878 18.8125C79.6878 18.0819 79.0955 17.4895 78.3649 17.4895H71.5052L65.7766 7.56726C65.5408 7.15836 65.1041 6.90578 64.6313 6.90578H52.4597L48.8719 3.32445C48.3532 2.82317 47.5276 2.83028 47.0173 3.3406C46.507 3.85093 46.4999 4.67649 47.0011 5.19522L50.5734 8.7675L45.5354 17.4895H33.8935C33.4207 17.4895 32.984 17.7421 32.7476 18.151L27.0138 28.0733H20.1541C19.4235 28.0733 18.8312 28.6657 18.8312 29.3963C18.8312 30.1269 19.4235 30.7193 20.1541 30.7193H27.0138L32.36 39.9801L27.0138 49.2408H15.41L10.5057 44.3366C9.98703 43.8353 9.16146 43.8424 8.65113 44.3527C8.14081 44.863 8.1337 45.6886 8.63498 46.2073L13.5302 51.1026L8.49222 59.8246H1.63254C0.901936 59.8246 0.30957 60.417 0.30957 61.1476C0.30957 61.8782 0.901936 62.4706 1.63254 62.4706H8.49222L14.2208 72.3928C14.4572 72.8024 14.8939 73.0543 15.3661 73.0543H27.5377L32.442 77.9586C32.9614 78.4599 33.7863 78.4528 34.2966 77.9425C34.8069 77.4321 34.814 76.6072 34.3128 76.0879L29.4175 71.1933L34.462 62.4706H46.1045C46.5767 62.4706 47.0134 62.2186 47.2498 61.8091L52.9784 51.8868H59.8433ZM53.1729 9.55172H63.8677L69.1318 18.671C69.1202 18.7176 69.1105 18.7647 69.1041 18.8125C69.1105 18.8603 69.1202 18.9075 69.1318 18.954L63.8677 28.0733H53.1729L47.8267 18.8125L53.1729 9.55172ZM34.6513 20.1355H45.3461L50.6923 29.3963L45.3461 38.6571H34.6513L29.3872 29.5378C29.3994 29.4912 29.4085 29.4441 29.4149 29.3963C29.4085 29.3485 29.3994 29.3013 29.3872 29.2548L34.6513 20.1355ZM26.8245 70.4084H16.1297L10.8656 61.2891C10.903 61.1986 10.903 61.0972 10.8656 61.0061L16.1297 51.8868H26.8245L32.1707 61.1476L26.8245 70.4084ZM45.3461 59.8246H34.6513L29.3051 50.5638L34.6513 41.303H45.3461L50.6102 50.4223C50.5734 50.5134 50.5734 50.6149 50.6102 50.7053L45.3461 59.8246Z" fill="#3ECC29"/>
<path d="M0.696853 27.1379C0.353191 27.4706 0.21495 27.9622 0.336395 28.4247C0.457194 28.8872 0.818298 29.2483 1.28082 29.3698C1.74334 29.4906 2.23558 29.353 2.56762 29.0087L7.47191 24.1044H19.65C20.1228 24.1044 20.5595 23.8524 20.7953 23.4429L26.5239 13.5206H33.3835C34.1141 13.5206 34.7065 12.9282 34.7065 12.1976C34.7065 11.467 34.1141 10.8747 33.3835 10.8747H26.5239L20.7953 0.952379C20.5595 0.543472 20.1228 0.290894 19.65 0.290894H7.42798C6.95577 0.290894 6.51909 0.543472 6.28266 0.952379L0.176838 11.5361C-0.0589458 11.9457 -0.0589458 12.4502 0.176838 12.8591L5.60115 22.2446L0.696853 27.1379ZM8.19153 2.93684H18.8864L24.1505 12.0562C24.1389 12.1027 24.1292 12.1498 24.1227 12.1976C24.1292 12.2454 24.1389 12.2926 24.1505 12.3391L18.8864 21.4584H8.19153L2.84539 12.1976L8.19153 2.93684Z" fill="#3ECC29"/>
</svg>
