<svg width="80" height="80" viewBox="0 0 80 80" fill="none" xmlns="http://www.w3.org/2000/svg">
<g clip-path="url(#clip0)">
<path d="M78.6664 61.3121H1.33362C0.597534 61.3121 0 60.7152 0 59.9791V54.6459C0 53.9098 0.597534 53.3123 1.33362 53.3123H78.6664C79.4025 53.3123 80 53.9098 80 54.6459V59.9791C80 60.7152 79.4025 61.3121 78.6664 61.3121ZM2.66663 58.6455H77.3334V55.9789H2.66663V58.6455Z" fill="#3ECC29"/>
<path d="M78.6664 74.6461H1.33362C0.597534 74.6461 0 74.0486 0 73.3125V67.9792C0 67.2432 0.597534 66.6462 1.33362 66.6462H78.6664C79.4025 66.6462 80 67.2432 80 67.9792V73.3125C80 74.0486 79.4025 74.6461 78.6664 74.6461ZM2.66663 71.9795H77.3334V69.3129H2.66663V71.9795Z" fill="#3ECC29"/>
<path d="M14.6667 69.3129H6.66687C5.93079 69.3129 5.33325 68.7153 5.33325 67.9793V59.9794C5.33325 59.2433 5.93079 58.6458 6.66687 58.6458H14.6667C15.4028 58.6458 15.9998 59.2433 15.9998 59.9794V67.9793C15.9998 68.7153 15.4028 69.3129 14.6667 69.3129ZM7.99988 66.6462H13.3331V61.3124H7.99988V66.6462Z" fill="#3ECC29"/>
<path d="M72 69.3129H64.0001C63.264 69.3129 62.6665 68.7153 62.6665 67.9793V59.9794C62.6665 59.2433 63.264 58.6458 64.0001 58.6458H72C72.7361 58.6458 73.333 59.2433 73.333 59.9794V67.9793C73.333 68.7153 72.7361 69.3129 72 69.3129ZM65.3331 66.6462H70.6664V61.3124H65.3331V66.6462Z" fill="#3ECC29"/>
<path d="M44 69.3129H35.9995C35.264 69.3129 34.6665 68.7153 34.6665 67.9793V59.9794C34.6665 59.2433 35.264 58.6458 35.9995 58.6458H44C44.7355 58.6458 45.333 59.2433 45.333 59.9794V67.9793C45.333 68.7153 44.7355 69.3129 44 69.3129ZM37.3331 66.6462H42.6664V61.3124H37.3331V66.6462Z" fill="#3ECC29"/>
<path d="M39.9999 55.979H7.99976C7.26367 55.979 6.66675 55.3821 6.66675 54.646V30.6458C6.66675 29.9097 7.26367 29.3127 7.99976 29.3127H39.9999C40.736 29.3127 41.3335 29.9097 41.3335 30.6458V54.646C41.3335 55.3821 40.736 55.979 39.9999 55.979ZM9.33337 53.3124H38.6663V31.9794H9.33337V53.3124Z" fill="#3ECC29"/>
<path d="M29.3334 42.6459C29.049 42.6459 28.7676 42.5549 28.532 42.3792L23.9983 38.9789L19.4652 42.3792C19.0612 42.6819 18.521 42.7313 18.0693 42.5061C17.6183 42.2803 17.332 41.8176 17.332 41.3123V30.6458C17.332 29.9097 17.929 29.3127 18.665 29.3127H29.3322C30.0676 29.3127 30.6652 29.9097 30.6652 30.6458V41.3123C30.6652 41.8176 30.3801 42.2791 29.9279 42.5061C29.7399 42.5989 29.5372 42.6459 29.3334 42.6459ZM24.0001 35.979C24.2815 35.979 24.5623 36.0687 24.7997 36.2457L27.9998 38.6456V31.9794H19.9999V38.6456L23.2 36.2457C23.4374 36.0687 23.7188 35.979 24.0001 35.979Z" fill="#3ECC29"/>
<path d="M72.0003 55.979H40.0001C39.264 55.979 38.6665 55.3821 38.6665 54.646V30.6458C38.6665 29.9097 39.264 29.3127 40.0001 29.3127H72.0003C72.7363 29.3127 73.3333 29.9097 73.3333 30.6458V54.646C73.3333 55.3821 72.7363 55.979 72.0003 55.979ZM41.3337 53.3124H70.6666V31.9794H41.3337V53.3124Z" fill="#3ECC29"/>
<path d="M61.3334 42.6459C61.049 42.6459 60.7676 42.5549 60.532 42.3792L55.9983 38.9789L51.4652 42.3792C51.0612 42.6819 50.521 42.7313 50.0693 42.5061C49.6183 42.2803 49.332 41.8176 49.332 41.3123V30.6458C49.332 29.9097 49.929 29.3127 50.665 29.3127H61.3315C62.0676 29.3127 62.6652 29.9097 62.6652 30.6458V41.3123C62.6652 41.8176 62.3795 42.2791 61.9279 42.5061C61.7399 42.5989 61.5372 42.6459 61.3334 42.6459ZM55.9995 35.979C56.2809 35.979 56.5623 36.0687 56.7997 36.2457L59.9998 38.6456V31.9794H51.9999V38.6456L55.2 36.2457C55.4374 36.0687 55.7181 35.979 55.9995 35.979Z" fill="#3ECC29"/>
<path d="M55.9996 31.9794H24.0001C23.264 31.9794 22.6665 31.3818 22.6665 30.6458V6.64612C22.6665 5.91003 23.264 5.3125 24.0001 5.3125H55.9996C56.7357 5.3125 57.3333 5.91003 57.3333 6.64612V30.6458C57.3333 31.3818 56.7357 31.9794 55.9996 31.9794ZM25.3331 29.3127H54.6666V7.97913H25.3331V29.3127Z" fill="#3ECC29"/>
<path d="M45.3334 18.6456C45.0496 18.6456 44.7682 18.5553 44.532 18.3789L39.9989 14.9792L35.4652 18.3789C35.0612 18.6816 34.5216 18.7311 34.0693 18.5059C33.6189 18.2806 33.332 17.818 33.332 17.3126V6.64612C33.332 5.91003 33.9296 5.3125 34.6656 5.3125H45.3322C46.0682 5.3125 46.6652 5.91003 46.6652 6.64612V17.3126C46.6652 17.818 46.3801 18.2794 45.9279 18.5059C45.7399 18.5992 45.5372 18.6456 45.3334 18.6456ZM40.0001 11.9794C40.2815 11.9794 40.5629 12.0685 40.8003 12.2461L44.0004 14.646V7.97913H35.9999V14.646L39.2 12.2461C39.4374 12.0685 39.7188 11.9794 40.0001 11.9794Z" fill="#3ECC29"/>
</g>
<defs>
<clipPath id="clip0">
<rect width="80" height="80" fill="white"/>
</clipPath>
</defs>
</svg>
