<svg width="80" height="80" viewBox="0 0 80 80" fill="none" xmlns="http://www.w3.org/2000/svg">
<g clip-path="url(#clip0)">
<path d="M36.8427 54.2603C37.4524 53.6494 37.4524 52.6606 36.8427 52.0496C36.2323 51.4405 35.2435 51.4405 34.6326 52.0496C34.0234 52.6606 34.0234 53.6494 34.6326 54.2603C35.2435 54.8694 36.2323 54.8694 36.8427 54.2603Z" fill="#3ECC29"/>
<path d="M29.4452 17.1826C29.4452 26.6571 37.1533 34.3659 46.6278 34.3659C56.1023 34.3659 63.8104 26.6571 63.8104 17.1826C63.8104 7.70813 56.1023 0 46.6278 0C37.1533 0 29.4452 7.70813 29.4452 17.1826ZM60.6867 17.1826C60.6867 24.9347 54.3799 31.2415 46.6278 31.2415C38.8757 31.2415 32.569 24.9347 32.569 17.1826C32.569 9.43116 38.8757 3.12439 46.6278 3.12439C54.3799 3.12439 60.6867 9.43116 60.6867 17.1826Z" fill="#3ECC29"/>
<path d="M18.0707 79.5379C18.6761 80.1482 19.6618 80.155 20.2752 79.5507L27.8485 72.0898C29.1351 70.8032 29.5264 68.8982 28.9606 67.2424L30.5896 65.6713C31.4667 64.8241 32.6214 64.3572 33.8421 64.3572H54.6082C58.2922 64.3572 61.7743 62.9424 64.4141 60.3735C64.5227 60.2679 63.5895 61.3671 78.5809 43.4496C80.8045 40.819 80.4718 36.8688 77.8388 34.6429C75.2222 32.4377 71.3025 32.7544 69.0729 35.3399L59.8553 44.8138C58.6914 43.3813 56.9165 42.4883 54.9988 42.4883H37.5799C35.1013 41.4513 32.4713 40.9264 29.7577 40.9264C22.2357 40.9264 15.6677 44.4006 12.1429 50.9142C10.6579 50.6329 9.09177 51.0821 7.96506 52.2088L0.534028 59.6618C-0.0726614 60.2703 -0.073882 61.2548 0.531587 61.8652L18.0707 79.5379ZM29.7571 44.0502C32.1496 44.0502 34.4629 44.5318 36.6339 45.4815C36.8317 45.5682 37.0447 45.6127 37.2601 45.6127H54.9988C56.6925 45.6127 58.1232 46.9939 58.1232 48.7365C58.1232 50.4595 56.7218 51.8609 54.9988 51.8609H42.254C41.3916 51.8609 40.6921 52.5603 40.6921 53.4228C40.6921 54.2858 41.3916 54.9847 42.254 54.9847H54.9988C58.4442 54.9847 61.2469 52.1819 61.2469 48.7365C61.2469 48.4618 61.2274 48.1896 61.192 47.9198C70.1086 38.7542 71.366 37.4664 71.4197 37.4023C72.533 36.0882 74.5093 35.9216 75.824 37.0299C77.1399 38.1426 77.3065 40.1177 76.1902 41.4391L62.1796 58.1884C60.1337 60.1525 57.4475 61.2334 54.6082 61.2334H33.8421C31.8072 61.2334 29.881 62.0116 28.4198 63.4234L27.0923 64.7045L14.8547 52.4676C17.7148 47.102 23.0816 44.0502 29.7571 44.0502ZM10.1758 54.4164C10.6909 53.9013 11.4819 53.8085 12.11 54.1967C12.3803 54.3615 11.604 53.6547 25.6396 67.6708C26.264 68.2952 26.2304 69.2901 25.6482 69.8724L19.1919 76.2328L3.84336 60.7671L10.1758 54.4164Z" fill="#3ECC29"/>
<path d="M44.7534 7.81067V9.64111C42.9352 10.2856 41.629 12.0221 41.629 14.0588C41.629 16.6425 43.7311 18.7451 46.3153 18.7451C47.1765 18.7451 47.8772 19.4458 47.8772 20.307C47.8772 21.1682 47.1765 21.8689 46.3153 21.8689C45.6482 21.8689 44.9274 21.4496 44.2871 20.6873C43.7317 20.0269 42.7466 19.942 42.0862 20.4968C41.4258 21.0523 41.3403 22.0374 41.8957 22.6978C42.7307 23.6908 43.7128 24.3829 44.7534 24.7321V26.5552C44.7534 27.4182 45.4529 28.1171 46.3153 28.1171C47.1777 28.1171 47.8772 27.4182 47.8772 26.5552V24.7247C49.6954 24.0796 51.0016 22.3431 51.0016 20.307C51.0016 17.7228 48.8995 15.6207 46.3153 15.6207C45.4541 15.6207 44.7534 14.92 44.7534 14.0588C44.7534 13.1976 45.4541 12.4963 46.3153 12.4963C46.8689 12.4963 47.453 12.7789 48.0048 13.313C48.6249 13.913 49.6137 13.8965 50.2136 13.277C50.8136 12.6569 50.7971 11.6681 50.1776 11.0681C49.3848 10.3009 48.5913 9.86695 47.8772 9.63013V7.81067C47.8772 6.94763 47.1777 6.24817 46.3153 6.24817C45.4529 6.24817 44.7534 6.94763 44.7534 7.81067Z" fill="#3ECC29"/>
</g>
<defs>
<clipPath id="clip0">
<rect width="79.8438" height="80" fill="white"/>
</clipPath>
</defs>
</svg>
