<svg width="80" height="80" viewBox="0 0 80 80" fill="none" xmlns="http://www.w3.org/2000/svg">
<g clip-path="url(#clip0)">
<path d="M18.125 64.375C15.5402 64.375 13.4375 66.4777 13.4375 69.0625C13.4375 71.6473 15.5402 73.75 18.125 73.75C20.7098 73.75 22.8125 71.6473 22.8125 69.0625C22.8125 66.4777 20.7098 64.375 18.125 64.375ZM18.125 70.625C17.2632 70.625 16.5625 69.9243 16.5625 69.0625C16.5625 68.2007 17.2632 67.5 18.125 67.5C18.9868 67.5 19.6875 68.2007 19.6875 69.0625C19.6875 69.9243 18.9868 70.625 18.125 70.625Z" fill="#3ECC29"/>
<path d="M75.3125 64.375H72.8125V30.625C72.8125 29.762 72.113 29.0625 71.25 29.0625H63.4375V7.8125C63.4375 6.94946 62.738 6.25 61.875 6.25C55.2917 6.25 36.7352 6.25 30.625 6.25C29.762 6.25 29.0625 6.94946 29.0625 7.8125V64.375H28.0084C26.9275 62.088 25.1001 60.2606 22.8125 59.1791V4.6875C22.8125 2.10266 20.7098 0 18.125 0H4.6875C2.10266 0 0 2.10266 0 4.6875C0 7.27234 2.10266 9.375 4.6875 9.375H13.4375V59.1791C9.6582 60.9735 7.1875 64.8138 7.1875 69.0625C7.1875 75.0934 12.0941 80 18.125 80C22.3737 80 26.214 77.5293 28.0084 73.75H75.3125C77.8973 73.75 80 71.6473 80 69.0625C80 66.4777 77.8973 64.375 75.3125 64.375ZM69.6875 64.375H32.1875V32.1875H43.125V48.75C43.125 49.342 43.4595 49.8828 43.9886 50.1477C44.5178 50.4126 45.1514 50.3552 45.625 50L50.9375 46.0156L56.25 50C56.7242 50.3558 57.3578 50.412 57.8864 50.1477C58.4155 49.8828 58.75 49.342 58.75 48.75V32.1875H69.6875V64.375ZM46.25 32.1875H55.625V45.625L51.875 42.8125C51.5973 42.6044 51.2671 42.5 50.9375 42.5C50.6079 42.5 50.2777 42.6044 50 42.8125L46.25 45.625V32.1875ZM43.125 9.375H49.375V18.3301L47.1167 16.825C46.8542 16.6498 46.5521 16.5625 46.25 16.5625C45.9479 16.5625 45.6458 16.6498 45.3833 16.825L43.125 18.3301V9.375ZM40 9.375V21.25C40 21.8262 40.3174 22.3553 40.8252 22.6276C41.3336 22.8998 41.9501 22.8693 42.4292 22.55L46.25 20.0031L50.0708 22.55C50.5505 22.8699 51.1676 22.8992 51.6748 22.6276C52.1826 22.356 52.5 21.8262 52.5 21.25V9.375H60.3125V29.0625C51.6864 29.0625 40.705 29.0625 32.1875 29.0625V9.375H40ZM4.6875 6.25C3.82568 6.25 3.125 5.54932 3.125 4.6875C3.125 3.82568 3.82568 3.125 4.6875 3.125H18.125C18.9868 3.125 19.6875 3.82568 19.6875 4.6875V58.2379C19.1724 58.1641 18.6511 58.125 18.125 58.125C17.5989 58.125 17.0776 58.1641 16.5625 58.2379V7.8125C16.5625 6.94946 15.863 6.25 15 6.25H4.6875ZM18.125 76.875C13.8171 76.875 10.3125 73.3704 10.3125 69.0625C10.3125 64.801 13.7598 61.25 18.125 61.25C22.489 61.25 25.9375 64.8047 25.9375 69.0625C25.9375 73.4277 22.3865 76.875 18.125 76.875ZM75.3125 70.625H28.9496C29.0234 70.1099 29.0625 69.5886 29.0625 69.0625C29.0625 68.5364 29.0228 68.0151 28.9496 67.5H75.3125C76.1743 67.5 76.875 68.2007 76.875 69.0625C76.875 69.9243 76.1743 70.625 75.3125 70.625Z" fill="#3ECC29"/>
<path d="M65 61.25C65.863 61.25 66.5625 60.5505 66.5625 59.6875V56.5625C66.5625 55.6995 65.863 55 65 55C64.137 55 63.4375 55.6995 63.4375 56.5625V59.6875C63.4375 60.5505 64.137 61.25 65 61.25Z" fill="#3ECC29"/>
<path d="M65 48.75C65.8624 48.75 66.5625 49.4501 66.5625 50.3125C66.5625 51.1749 65.8624 51.875 65 51.875C64.1376 51.875 63.4375 51.1749 63.4375 50.3125C63.4375 49.4501 64.1376 48.75 65 48.75Z" fill="#3ECC29"/>
<path d="M58.75 55C57.887 55 57.1875 55.6995 57.1875 56.5625V59.6875C57.1875 60.5505 57.887 61.25 58.75 61.25C59.613 61.25 60.3125 60.5505 60.3125 59.6875V56.5625C60.3125 55.6995 59.613 55 58.75 55Z" fill="#3ECC29"/>
</g>
<defs>
<clipPath id="clip0">
<rect width="80" height="80" fill="white"/>
</clipPath>
</defs>
</svg>
