<svg width="80" height="80" viewBox="0 0 80 80" fill="none" xmlns="http://www.w3.org/2000/svg">
<g clip-path="url(#clip0)">
<path d="M39.7332 78.2355C36.9464 78.2355 34.161 77.6738 31.5816 76.5519L19.2475 71.1901C14.7853 69.2491 10.0672 68.0198 5.22456 67.5357L1.17411 67.1307C0.507238 67.0643 0 66.5033 0 65.8335V53.1279C0 52.8459 0.0917505 52.5714 0.261079 52.3461C0.56393 51.9411 7.82341 42.4572 18.9125 44.9248C25.1493 46.3108 30.171 48.9044 33.2853 50.8364C35.5462 52.2387 38.1965 52.9795 40.9498 52.9795H53.2839C55.4098 52.9795 57.2784 54.1043 58.3235 55.7916L68.9464 43.553C71.0059 40.8027 74.3753 39.1184 77.9029 39.1184H78.6965C79.1374 39.1184 79.5477 39.3407 79.7878 39.7092C80.0288 40.0777 80.0668 40.5439 79.89 40.9467L70.2824 62.7818C68.1818 67.5573 63.9046 71.1647 58.8419 72.4306L57.1516 72.8528L47.3186 76.7861C44.8988 77.7536 42.3156 78.2355 39.7332 78.2355ZM2.6078 64.6534L5.48414 64.9413C10.5961 65.4523 15.5767 66.751 20.288 68.7993L32.6214 74.1611C36.9583 76.0469 41.9598 76.1207 46.3511 74.364L56.2647 70.3986C56.3199 70.377 56.3758 70.3591 56.4333 70.3449L58.2093 69.9003C62.4962 68.8284 66.1178 65.7745 67.8953 61.7316L76.6586 41.8157C74.4149 42.1462 72.3501 43.3553 70.9746 45.1889L59.2067 58.7515C59.2081 58.8023 59.2089 58.8522 59.2089 58.9037C59.2089 62.1702 56.5511 64.828 53.2846 64.828H36.0758C33.8388 64.828 31.6278 65.1867 29.5056 65.8939L29.0267 64.678L28.6217 63.439L28.6881 63.4174C31.0698 62.6237 33.5575 62.2201 36.0758 62.2201H53.2846C55.1129 62.2201 56.6018 60.732 56.6018 58.903C56.6018 57.0739 55.1137 55.5858 53.2846 55.5858H40.9506C37.7109 55.5858 34.5855 54.7093 31.912 53.0511C28.97 51.2257 24.2273 48.7768 18.3486 47.4692C9.95082 45.6066 3.90797 52.0515 2.60855 53.5889V64.6534H2.6078Z" fill="#3ECC29"/>
<path d="M51.343 38.8236C49.3379 38.8236 47.0896 38.2045 44.6146 36.967C44.3147 36.8163 44.0835 36.5552 43.9701 36.2397C43.8694 35.957 41.5398 29.2562 45.2419 24.3009C47.9325 20.6988 52.9915 19.0764 60.2868 19.4829C60.9521 19.5194 61.4825 20.0528 61.5153 20.7197C61.5414 21.2373 62.0793 33.4566 55.8484 37.5249C54.5236 38.391 53.0183 38.8236 51.343 38.8236ZM46.2773 34.8746C49.7019 36.4806 52.4395 36.638 54.4237 35.3423C58.1183 32.9292 58.9172 25.7659 58.9366 22.0377C53.2205 21.8982 49.3289 23.1865 47.3305 25.8607C44.9525 29.0451 45.8767 33.4252 46.2773 34.8746Z" fill="#3ECC29"/>
<path d="M31.4055 21.7424C29.0939 21.7424 26.4271 21.2471 24.0998 19.5426C20.1523 16.6499 18.3382 11.1426 18.7067 3.17451C18.738 2.50839 19.2661 1.9728 19.9322 1.93327C20.4962 1.90119 33.844 1.18882 38.3353 7.93061C40.4269 11.0688 40.2553 15.1789 37.8273 20.1491C37.6796 20.4512 37.4215 20.6847 37.106 20.8003C36.9307 20.8652 34.4833 21.7424 31.4055 21.7424ZM36.6562 19.577H36.6689H36.6562ZM21.2727 4.49855C21.1601 10.8808 22.6273 15.2311 25.6402 17.4391C29.2475 20.082 34.173 18.9586 35.7215 18.5073C37.4931 14.6627 37.6431 11.5932 36.1661 9.37624C33.4211 5.25568 25.3709 4.45006 21.2727 4.49855Z" fill="#3ECC29"/>
<path d="M41.5869 55.1277C41.5458 55.1277 41.5048 55.1255 41.463 55.1218C40.7686 55.0561 40.2487 54.4557 40.2837 53.7582C40.3605 52.2246 40.4918 50.77 40.6701 49.3915C41.2124 40.1657 40.9327 18.6812 27.3491 12.7375C26.6897 12.4489 26.3884 11.6805 26.677 11.0204C26.965 10.3617 27.7355 10.0611 28.3942 10.349C36.3989 13.8512 41.4347 22.5705 42.9542 35.564C43.0907 36.7284 43.1929 37.8764 43.269 38.9946C46.8465 29.9545 52.3194 26.7604 52.6454 26.5777C53.272 26.2234 54.0672 26.4486 54.4207 27.0745C54.7721 27.7011 54.5513 28.494 53.9269 28.8476C53.7889 28.9281 45.3964 33.9647 43.2898 49.4967C43.1295 52.1537 42.8982 53.8477 42.8766 54.0029C42.7863 54.6533 42.2306 55.1277 41.5869 55.1277Z" fill="#3ECC29"/>
</g>
<defs>
<clipPath id="clip0">
<rect width="80" height="80" fill="white"/>
</clipPath>
</defs>
</svg>
