<svg width="80" height="80" viewBox="0 0 80 80" fill="none" xmlns="http://www.w3.org/2000/svg">
<path d="M68.6416 79.9974C66.0017 79.9974 63.2643 77.9894 61.8426 74.7529C61.5636 74.1202 61.3521 73.4616 61.213 72.7865H18.8326C18.6934 73.4616 18.4828 74.1187 18.2054 74.7529C16.4213 78.8091 12.5766 80.9445 9.43834 79.5966C8.17771 79.0574 7.21809 78.031 6.66322 76.6281C5.88515 74.6578 6.01483 72.2191 7.01846 69.9375C7.64092 68.5197 8.58089 67.2693 9.70634 66.3443C8.61468 54.9286 7.25738 28.699 15.2809 11.0038C14.7151 10.647 14.1854 10.2273 13.6996 9.7471C12.0979 8.16817 11.143 6.13104 11.143 4.29746C11.143 3.05569 11.5658 1.98368 12.3628 1.19776C14.4015 -0.815011 18.1865 -0.234995 20.975 2.51655C21.7719 3.3009 22.2734 4.50573 22.6435 5.49679H55.1449C55.6384 4.52067 56.4071 3.27811 57.1796 2.51655C59.9697 -0.23578 63.7547 -0.812653 65.7926 1.19776C66.5904 1.98368 67.0116 3.05726 67.0116 4.29903C67.0116 6.13104 66.0567 8.16895 64.4566 9.7471C64.396 9.80604 64.3355 9.86577 64.2727 9.92472C72.8424 27.594 71.46 54.6347 70.34 66.3443C71.4647 67.2701 72.4055 68.5205 73.0279 69.9383C74.0308 72.2199 74.1597 74.6578 73.3816 76.6274C72.8275 78.0302 71.8687 79.0574 70.608 79.5966C69.973 79.8685 69.3105 79.9974 68.6416 79.9974ZM17.6427 70.0397H62.4029C63.1205 70.0397 63.717 70.5922 63.772 71.3074C63.8357 72.12 64.0314 72.9076 64.3568 73.6479C65.4877 76.2202 67.8589 77.7827 69.5266 77.0722C70.2497 76.7625 70.6316 76.1102 70.8265 75.6182C71.3295 74.3442 71.2124 72.634 70.5137 71.0433C69.9777 69.822 69.1336 68.7869 68.1386 68.1283C67.7135 67.847 67.4785 67.3534 67.5295 66.8465C68.644 55.7373 70.2889 28.0931 61.584 10.6824L61.5007 10.6006C61.2107 10.3169 61.0621 9.91843 61.0944 9.51289C61.1258 9.10814 61.3356 8.73796 61.6665 8.50297C62.0131 8.25619 62.2866 8.03141 62.5263 7.79249C63.5999 6.73542 64.2648 5.39698 64.2648 4.29982C64.2648 3.80233 64.1288 3.41722 63.864 3.15393C63.0537 2.35779 60.9034 2.70124 59.1083 4.47272C58.4898 5.08261 57.6316 6.53029 57.307 7.36888C57.1018 7.89702 56.5926 8.2444 56.0267 8.2444H21.6886C21.1228 8.2444 20.6127 7.89702 20.4076 7.36888L20.2111 6.83916C19.9329 6.07995 19.5147 4.93406 19.0463 4.47272C17.2513 2.70202 15.1017 2.35779 14.2915 3.15393C14.0258 3.41722 13.8898 3.80233 13.8898 4.29825C13.8898 5.39541 14.5563 6.73384 15.6283 7.79249C16.2162 8.37172 16.8866 8.8252 17.6214 9.13958C17.968 9.28654 18.2384 9.57105 18.3704 9.92393C18.5017 10.2768 18.4812 10.6682 18.317 11.0062C9.77472 28.4648 11.4157 55.8733 12.5168 66.8465C12.5671 67.3542 12.3329 67.847 11.9077 68.1291C10.9127 68.7877 10.0687 69.8228 9.53265 71.0433C8.83317 72.6356 8.71528 74.3458 9.21828 75.6182C9.41319 76.111 9.79672 76.7625 10.5198 77.0722C12.1891 77.7835 14.5587 76.221 15.6904 73.6479C16.015 72.9076 16.2107 72.12 16.2736 71.3074C16.3286 70.5922 16.9259 70.0397 17.6427 70.0397Z" fill="#3ECC29"/>
<path d="M39.6448 31.3586C39.3178 31.3586 38.9901 31.2423 38.73 31.0097C38.5948 30.8894 35.433 28.0216 35.433 24.4134C35.433 20.7942 38.6089 17.9978 38.7449 17.8799C39.2628 17.432 40.0267 17.432 40.5447 17.8799C40.6806 17.9978 43.8566 20.7942 43.8566 24.4134C43.8566 28.0216 40.6956 30.8894 40.5596 31.0097C40.2995 31.2423 39.9725 31.3586 39.6448 31.3586ZM39.6448 20.9278C38.9767 21.7601 38.1798 23.0411 38.1798 24.4134C38.1798 25.788 38.9736 27.091 39.6448 27.9477C40.3152 27.0918 41.1098 25.788 41.1098 24.4134C41.1098 23.0411 40.3144 21.7601 39.6448 20.9278Z" fill="#3ECC29"/>
<path d="M40.5313 36.8412C40.3277 36.8412 40.2004 36.8357 40.1721 36.8334C39.4734 36.7941 38.9162 36.2376 38.8777 35.5382C38.8667 35.359 38.6584 31.0961 41.2103 28.545C43.7709 25.9828 47.9968 26.2508 48.1729 26.2673C48.8543 26.3153 49.3958 26.8576 49.4445 27.539C49.4579 27.7174 49.7275 31.9394 47.1669 34.4999C45.0142 36.6542 41.6395 36.8412 40.5313 36.8412ZM46.6545 29.0574C45.5919 29.1737 44.1238 29.5156 43.1524 30.487C42.1818 31.4584 41.8202 32.9415 41.689 34.0213C42.7688 33.8901 44.2527 33.5293 45.2249 32.5579C46.1955 31.5865 46.5382 30.1192 46.6545 29.0574Z" fill="#3ECC29"/>
<path d="M38.7583 36.8412C37.6501 36.8412 34.2769 36.6541 32.1227 34.5007C29.5637 31.9401 29.8332 27.7173 29.8466 27.5389C29.8953 26.8575 30.4368 26.316 31.1182 26.2673C31.2974 26.2555 35.5218 25.9843 38.0792 28.5449C40.6303 31.0968 40.4229 35.3589 40.4119 35.5389C40.3733 36.2376 39.8169 36.794 39.1174 36.8333C39.0891 36.8357 38.9618 36.8412 38.7583 36.8412ZM34.0647 32.5579C35.0322 33.5245 36.5184 33.8861 37.6006 34.0189C37.4693 32.9398 37.1086 31.4583 36.1372 30.4869C35.1666 29.5155 33.6984 29.1736 32.6367 29.0573C32.753 30.1175 33.0948 31.5864 34.0647 32.5579Z" fill="#3ECC29"/>
<path d="M40.5313 45.2295C40.3262 45.2295 40.2004 45.224 40.1721 45.2216C39.4734 45.1823 38.9162 44.6259 38.8777 43.9272C38.8667 43.7472 38.6584 39.4835 41.2103 36.9316C43.7709 34.3711 47.9968 34.6422 48.1729 34.6556C48.8543 34.7043 49.3958 35.2458 49.4445 35.9272C49.4579 36.1056 49.7275 40.3276 47.1669 42.8882C45.0142 45.0432 41.6395 45.2295 40.5313 45.2295ZM46.6545 37.4456C45.5919 37.5612 44.1238 37.903 43.1524 38.8737C42.1857 39.8411 41.8249 41.3273 41.6921 42.4096C42.772 42.2783 44.2535 41.9176 45.2249 40.9462C46.1955 39.9755 46.5382 38.5082 46.6545 37.4456Z" fill="#3ECC29"/>
<path d="M38.7583 45.2295C37.6501 45.2295 34.2769 45.0432 32.1227 42.889C29.5637 40.3284 29.8332 36.1056 29.8466 35.9272C29.8953 35.2466 30.4368 34.7043 31.1182 34.6564C31.2966 34.6399 35.5187 34.3719 38.0792 36.9324C40.6303 39.4836 40.4229 43.7472 40.4119 43.9272C40.3733 44.6259 39.8169 45.1824 39.1174 45.2216C39.0891 45.224 38.9618 45.2295 38.7583 45.2295ZM34.0647 40.947C35.0322 41.9137 36.5184 42.2744 37.6006 42.4072C37.4693 41.3274 37.1086 39.8451 36.1372 38.8745C35.1705 37.9078 33.7 37.5651 32.6367 37.4472C32.753 38.5082 33.0948 39.9763 34.0647 40.947Z" fill="#3ECC29"/>
<path d="M40.5313 52.9716C40.3277 52.9716 40.2004 52.9661 40.1721 52.9638C39.4734 52.9245 38.9162 52.3681 38.8777 51.6686C38.8667 51.4894 38.6584 47.2265 41.2103 44.6754C43.7709 42.1132 47.9968 42.3844 48.1729 42.3978C48.8543 42.4465 49.3958 42.988 49.4445 43.6694C49.4579 43.8478 49.7275 48.0698 47.1669 50.6304C45.0142 52.7846 41.6395 52.9716 40.5313 52.9716ZM46.6545 45.1878C45.5919 45.3041 44.1238 45.6468 43.1524 46.6174C42.1818 47.5888 41.8202 49.0719 41.689 50.1517C42.7688 50.0205 44.2527 49.6597 45.2249 48.6883C46.1955 47.7177 46.5382 46.2504 46.6545 45.1878Z" fill="#3ECC29"/>
<path d="M38.7583 52.9717C37.6501 52.9717 34.2769 52.7846 32.1227 50.6312C29.5637 48.0706 29.8332 43.8478 29.8466 43.6694C29.8953 42.988 30.4368 42.4465 31.1182 42.3978C31.2974 42.386 35.5218 42.1148 38.0792 44.6754C40.6303 47.2273 40.4229 51.4894 40.4119 51.6694C40.3733 52.3681 39.8169 52.9245 39.1174 52.9638C39.0891 52.9662 38.9618 52.9717 38.7583 52.9717ZM34.0647 48.6884C35.0322 49.655 36.5184 50.0166 37.6006 50.1494C37.4693 49.0703 37.1086 47.5888 36.1372 46.6174C35.1666 45.6468 33.6984 45.3041 32.6367 45.1878C32.753 46.2488 33.0948 47.7177 34.0647 48.6884Z" fill="#3ECC29"/>
<path d="M39.5442 64.5578C39.5426 64.5578 39.5418 64.5578 39.5402 64.5578C38.781 64.5546 38.168 63.9377 38.1704 63.18L38.2717 29.9808C38.2741 29.2231 38.8887 28.6117 39.6448 28.6117H39.6487C40.4079 28.6141 41.0209 29.231 41.0186 29.9894L40.918 63.1879C40.9148 63.9463 40.301 64.5578 39.5442 64.5578Z" fill="#3ECC29"/>
</svg>
