<svg width="80" height="80" viewBox="0 0 80 80" fill="none" xmlns="http://www.w3.org/2000/svg">
<g clip-path="url(#clip0)">
<path d="M78.6661 61.3332C77.183 61.3716 75.7227 60.9647 74.4727 60.1652C71.0932 58.1672 66.894 58.1672 63.5145 60.1652C60.9377 61.7219 57.7105 61.7219 55.1343 60.1652C51.7555 58.1666 47.5556 58.1666 44.1767 60.1652C41.6012 61.7219 38.3754 61.7219 35.7999 60.1652C34.1573 59.1464 32.2537 58.6255 30.3214 58.6666C28.3898 58.6262 26.4881 59.147 24.8462 60.1652C23.5988 60.9654 22.1398 61.3723 20.6587 61.3332C19.1776 61.3716 17.7193 60.9654 16.4719 60.1665C14.83 59.147 12.9276 58.6262 10.996 58.6666C9.06438 58.6262 7.1627 59.147 5.52144 60.1652C4.27406 60.9654 2.81508 61.3723 1.33332 61.3332C0.597 61.3332 0 61.9302 0 62.6665C0 63.4035 0.597 63.9999 1.33332 63.9999C3.2656 64.0409 5.16793 63.52 6.80919 62.4999C8.05658 61.7017 9.5149 61.2954 10.996 61.3332C12.4771 61.2948 13.9361 61.7017 15.1841 62.5018C16.8254 63.52 18.7271 64.0409 20.6587 63.9999C22.5903 64.0402 24.492 63.5187 26.1333 62.4999C27.3806 61.701 28.8396 61.2941 30.3214 61.3332C31.8031 61.2954 33.2621 61.7023 34.5101 62.5018C37.889 64.4998 42.0876 64.4998 45.4664 62.5018C48.0419 60.9445 51.2691 60.9445 53.8446 62.5018C57.2235 64.4998 61.422 64.4998 64.8009 62.5018C67.3797 60.9445 70.6088 60.9445 73.1876 62.5018C74.8301 63.52 76.7331 64.0409 78.6661 63.9999C79.4024 63.9999 79.9994 63.4035 79.9994 62.6665C79.9994 61.9302 79.4024 61.3332 78.6661 61.3332Z" fill="#3ECC29"/>
<path d="M0 57.3331C0 58.0701 0.597 58.6665 1.33332 58.6665C3.26234 58.7101 5.16272 58.1892 6.80008 57.1684C8.05267 56.3696 9.5149 55.9627 10.9999 55.9998C12.4882 55.9653 13.9524 56.3761 15.205 57.1801C16.8397 58.1905 18.7316 58.7068 20.6535 58.6665C22.589 58.7062 24.4946 58.1847 26.1411 57.1652C27.3846 56.3644 28.8409 55.9581 30.3201 55.9998C31.8123 55.9634 33.2816 56.3748 34.5381 57.1801C37.9138 59.1665 42.1019 59.1606 45.4716 57.1652C46.7158 56.3637 48.1735 55.9575 49.6533 55.9998C51.1454 55.9634 52.6148 56.3748 53.8713 57.1801C57.2463 59.1678 61.4344 59.1632 64.8048 57.1684C66.0561 56.3709 67.5164 55.964 68.9995 55.9998C69.2885 55.9998 69.5554 56.0109 69.825 56.0363C71.0196 56.1365 72.172 56.5252 73.1837 57.1697C74.8282 58.1879 76.7325 58.7081 78.6661 58.6665C79.4024 58.6665 79.9994 58.0701 79.9994 57.3331C79.9994 56.5968 79.4024 55.9998 78.6661 55.9998C77.1823 56.0395 75.7214 55.6333 74.4714 54.8332C73.67 54.3605 72.8152 53.9849 71.9246 53.7147L79.8581 37.9322C80.0658 37.5188 80.0443 37.0273 79.8015 36.6334C79.5586 36.2395 79.1289 36 78.6661 36H71.9994V17.3334C71.9994 16.5971 71.4024 16.0001 70.6661 16.0001H22.6665C21.9302 16.0001 21.3332 16.5971 21.3332 17.3334V39.9999H18.6665V20.0001C18.6665 19.2638 18.0695 18.6668 17.3332 18.6668H6.66661C6.00842 18.6674 5.44918 19.1472 5.34957 19.7976L2.8561 36H1.33332C0.597 36 0 36.597 0 37.3333V49.3332C0 49.5754 0.0657547 49.813 0.190754 50.02L3.60023 55.7029C2.86326 55.9139 2.09959 56.0141 1.33332 55.9998C0.597 55.9998 0 56.5968 0 57.3331H0ZM62.6662 36C62.3778 36 62.0972 36.0937 61.8661 36.2669L56.8889 39.9999H55.9996V34.6666H69.3328V36H62.6662ZM39.9997 39.9999V34.6666H53.3329V39.9999H39.9997ZM23.9998 26.6667H37.333V32H23.9998V26.6667ZM69.3328 32H55.9996V26.6667H69.3328V32ZM53.3329 32H39.9997V26.6667H53.3329V32ZM69.3328 24.0001H55.9996V18.6668H69.3328V24.0001ZM53.3329 24.0001H39.9997V18.6668H53.3329V24.0001ZM23.9998 18.6668H37.333V24.0001H23.9998V18.6668ZM23.9998 34.6666H37.333V39.9999H23.9998V34.6666ZM7.81049 21.3334H15.9999V38.1152L14.2759 36.3912C14.0259 36.1406 13.6867 36.0006 13.3332 36H5.55464L7.81049 21.3334ZM2.66665 38.6666H12.7811L16.3905 42.276C16.6405 42.5266 16.9797 42.6666 17.3332 42.6666H57.3329C57.6213 42.6666 57.9019 42.5735 58.133 42.4003L63.1102 38.6666H76.5033L69.129 53.3332C69.0834 53.3332 69.045 53.3332 68.9956 53.3332C67.062 53.2941 65.1583 53.8143 63.5145 54.8318C60.9305 56.393 57.6936 56.3885 55.1142 54.8201C51.7398 52.8325 47.5511 52.8371 44.1813 54.8318C41.5973 56.393 38.3604 56.3885 35.781 54.8201C34.1423 53.8084 32.2452 53.2921 30.3201 53.3332C28.3904 53.2895 26.49 53.8104 24.8533 54.8318C23.6001 55.63 22.1378 56.0369 20.6535 55.9998C19.1652 56.035 17.7017 55.6242 16.4491 54.8201C14.8137 53.8097 12.9218 53.2934 10.9999 53.3332C10.6744 53.3332 10.3717 53.3468 10.0813 53.367C9.98365 53.3735 9.89445 53.3852 9.80005 53.395C9.61451 53.4132 9.43092 53.4321 9.25709 53.4575C9.15488 53.4738 9.05852 53.4907 8.96022 53.5096C8.80787 53.5363 8.66009 53.5643 8.51751 53.5975C8.42246 53.619 8.32936 53.6431 8.23887 53.6665C8.1054 53.7016 7.97194 53.7401 7.83848 53.7804C7.7571 53.8052 7.67442 53.8306 7.59564 53.8572C7.46283 53.9028 7.33848 53.951 7.21609 53.9998C7.15164 54.0252 7.08263 54.0493 7.02273 54.076C6.8743 54.1385 6.73172 54.2029 6.59305 54.2694L6.50255 54.311C6.33589 54.3924 6.17313 54.4751 6.01753 54.5578L2.66665 48.9641V38.6666Z" fill="#3ECC29"/>
<path d="M11.9999 22.6669H10.6666C9.93026 22.6669 9.33325 23.2639 9.33325 24.0002C9.33325 24.7372 9.93026 25.3335 10.6666 25.3335H11.9999C12.7362 25.3335 13.3333 24.7372 13.3333 24.0002C13.3333 23.2639 12.7362 22.6669 11.9999 22.6669Z" fill="#3ECC29"/>
<path d="M11.9999 47.9999H13.3333C14.0696 47.9999 14.6666 47.4036 14.6666 46.6666C14.6666 45.9303 14.0696 45.3333 13.3333 45.3333H11.9999C11.2636 45.3333 10.6666 45.9303 10.6666 46.6666C10.6666 47.4036 11.2636 47.9999 11.9999 47.9999Z" fill="#3ECC29"/>
<path d="M18.6665 47.9999H19.9999C20.7362 47.9999 21.3332 47.4036 21.3332 46.6666C21.3332 45.9303 20.7362 45.3333 19.9999 45.3333H18.6665C17.9302 45.3333 17.3332 45.9303 17.3332 46.6666C17.3332 47.4036 17.9302 47.9999 18.6665 47.9999Z" fill="#3ECC29"/>
<path d="M25.3331 47.9999H26.6665C27.4028 47.9999 27.9998 47.4036 27.9998 46.6666C27.9998 45.9303 27.4028 45.3333 26.6665 45.3333H25.3331C24.5968 45.3333 23.9998 45.9303 23.9998 46.6666C23.9998 47.4036 24.5968 47.9999 25.3331 47.9999Z" fill="#3ECC29"/>
<path d="M31.9998 47.9999H33.3331C34.0694 47.9999 34.6664 47.4036 34.6664 46.6666C34.6664 45.9303 34.0694 45.3333 33.3331 45.3333H31.9998C31.2634 45.3333 30.6664 45.9303 30.6664 46.6666C30.6664 47.4036 31.2634 47.9999 31.9998 47.9999Z" fill="#3ECC29"/>
<path d="M38.6664 47.9999H39.9997C40.7361 47.9999 41.3331 47.4036 41.3331 46.6666C41.3331 45.9303 40.7361 45.3333 39.9997 45.3333H38.6664C37.9301 45.3333 37.3331 45.9303 37.3331 46.6666C37.3331 47.4036 37.9301 47.9999 38.6664 47.9999Z" fill="#3ECC29"/>
<path d="M45.333 47.9999H46.6663C47.4027 47.9999 47.9997 47.4036 47.9997 46.6666C47.9997 45.9303 47.4027 45.3333 46.6663 45.3333H45.333C44.5967 45.3333 43.9997 45.9303 43.9997 46.6666C43.9997 47.4036 44.5967 47.9999 45.333 47.9999Z" fill="#3ECC29"/>
<path d="M51.9996 47.9999H53.3329C54.0693 47.9999 54.6663 47.4036 54.6663 46.6666C54.6663 45.9303 54.0693 45.3333 53.3329 45.3333H51.9996C51.2633 45.3333 50.6663 45.9303 50.6663 46.6666C50.6663 47.4036 51.2633 47.9999 51.9996 47.9999Z" fill="#3ECC29"/>
<path d="M58.6662 47.9999H59.9996C60.7359 47.9999 61.3329 47.4036 61.3329 46.6666C61.3329 45.9303 60.7359 45.3333 59.9996 45.3333H58.6662C57.9299 45.3333 57.3329 45.9303 57.3329 46.6666C57.3329 47.4036 57.9299 47.9999 58.6662 47.9999Z" fill="#3ECC29"/>
<path d="M65.3328 47.9999H66.6662C67.4025 47.9999 67.9995 47.4036 67.9995 46.6666C67.9995 45.9303 67.4025 45.3333 66.6662 45.3333H65.3328C64.5965 45.3333 63.9995 45.9303 63.9995 46.6666C63.9995 47.4036 64.5965 47.9999 65.3328 47.9999Z" fill="#3ECC29"/>
</g>
<defs>
<clipPath id="clip0">
<rect width="80" height="80" fill="white"/>
</clipPath>
</defs>
</svg>
