<?xml version="1.0" standalone="no"?>
<!DOCTYPE svg PUBLIC "-//W3C//DTD SVG 20010904//EN"
 "http://www.w3.org/TR/2001/REC-SVG-20010904/DTD/svg10.dtd">
<svg version="1.0" xmlns="http://www.w3.org/2000/svg"
 width="260.000000pt" height="260.000000pt" viewBox="0 0 260.000000 260.000000"
 preserveAspectRatio="xMidYMid meet">
<metadata>
Created by potrace 1.11, written by Peter Selinger 2001-2013
</metadata>
<g transform="translate(0.000000,260.000000) scale(0.100000,-0.100000)"
fill="#000000" stroke="none">
<path d="M35 2592 l-30 -3 0 -467 0 -467 825 -5 825 -5 0 -823 0 -822 473 0
472 0 -2 1296 -3 1297 -1265 1 c-696 0 -1279 0 -1295 -2z"/>
<path d="M7 925 c-2 -5 -3 -215 -3 -465 l1 -455 471 -3 471 -2 1 465 2 465
-33 0 c-406 6 -907 3 -910 -5z"/>
</g>
</svg>
