<svg width="20" height="20" viewBox="0 0 20 20" fill="none" xmlns="http://www.w3.org/2000/svg">
<g clip-path="url(#clip0)">
<path d="M5.89143 12.8673C5.89143 12.5351 5.66096 12.3371 5.25432 12.3371C5.08827 12.3371 4.97581 12.3534 4.91699 12.3691V13.4348C4.98664 13.4505 5.07226 13.4557 5.19027 13.4557C5.62371 13.4557 5.89143 13.2367 5.89143 12.8673Z" fill="black"/>
<path d="M8.4087 12.3485C8.2266 12.3485 8.10891 12.3642 8.03931 12.3805V14.7406C8.10895 14.757 8.22141 14.757 8.32308 14.757C9.06183 14.7622 9.54364 14.3556 9.54364 13.4939C9.54887 12.7446 9.10982 12.3485 8.4087 12.3485Z" fill="black"/>
<path d="M13.0858 4.57764e-05H5.05294C3.87942 4.57764e-05 2.92431 0.955826 2.92431 2.12868V10H2.7164C2.24276 10 1.85864 10.3838 1.85864 10.8578V16.0598C1.85864 16.5338 2.24272 16.9175 2.7164 16.9175H2.92431V17.8714C2.92431 19.0455 3.87942 20 5.05294 20H16.0134C17.1861 20 18.1414 19.0455 18.1414 17.8714V5.03796L13.0858 4.57764e-05ZM4.1089 11.7966C4.36028 11.7541 4.71362 11.7221 5.21144 11.7221C5.71453 11.7221 6.0731 11.8181 6.31403 12.011C6.54417 12.1928 6.69948 12.4928 6.69948 12.8459C6.69948 13.1989 6.58179 13.499 6.36766 13.7023C6.08916 13.9645 5.67728 14.0822 5.19547 14.0822C5.08824 14.0822 4.99213 14.0769 4.91697 14.0665V15.3564H4.1089V11.7966ZM16.0134 18.6964H5.05294C4.59855 18.6964 4.22853 18.3264 4.22853 17.8714V16.9175H14.4459C14.9196 16.9175 15.3037 16.5338 15.3037 16.0598V10.8578C15.3037 10.3838 14.9196 10 14.4459 10H4.22853V2.12868C4.22853 1.67495 4.59859 1.30494 5.05294 1.30494L12.5981 1.29705V4.086C12.5981 4.90061 13.259 5.56221 14.0743 5.56221L16.8063 5.55437L16.8371 17.8713C16.8371 18.3264 16.4677 18.6964 16.0134 18.6964ZM7.22053 15.34V11.7966C7.52023 11.7489 7.91087 11.7221 8.32311 11.7221C9.00823 11.7221 9.45249 11.845 9.80061 12.1071C10.1752 12.3856 10.4106 12.8296 10.4106 13.4669C10.4106 14.1573 10.1592 14.6339 9.81102 14.9281C9.43117 15.2438 8.85296 15.3936 8.14657 15.3936C7.72354 15.3936 7.42383 15.3668 7.22053 15.34ZM13.0623 13.2421V13.9056H11.7668V15.3564H10.948V11.7489H13.1531V12.4176H11.7668V13.2421H13.0623Z" fill="black"/>
</g>
<defs>
<clipPath id="clip0">
<rect width="20" height="20" fill="white"/>
</clipPath>
</defs>
</svg>
