<svg width="18" height="20" viewBox="0 0 18 20" fill="none" xmlns="http://www.w3.org/2000/svg">
<path d="M12.0858 0H4.05294C2.87942 0 1.92431 0.95578 1.92431 2.12863V9.99996H1.7164C1.24276 9.99996 0.858643 10.3837 0.858643 10.8578V16.0597C0.858643 16.5337 1.24272 16.9175 1.7164 16.9175H1.92431V17.8713C1.92431 19.0455 2.87942 20 4.05294 20H15.0134C16.1861 20 17.1414 19.0454 17.1414 17.8713V5.03791L12.0858 0ZM3.1089 11.7965C3.36028 11.7541 3.71362 11.722 4.21144 11.722C4.71453 11.722 5.0731 11.8181 5.31403 12.011C5.54417 12.1927 5.69948 12.4928 5.69948 12.8459C5.69948 13.1989 5.58179 13.499 5.36766 13.7023C5.08916 13.9644 4.67728 14.0821 4.19547 14.0821C4.08824 14.0821 3.99213 14.0768 3.91697 14.0664V15.3563H3.1089V11.7965ZM15.0134 18.6964H4.05294C3.59855 18.6964 3.22853 18.3263 3.22853 17.8713V16.9175H13.4459C13.9196 16.9175 14.3037 16.5337 14.3037 16.0597V10.8578C14.3037 10.3837 13.9196 9.99996 13.4459 9.99996H3.22853V2.12863C3.22853 1.67491 3.59859 1.30489 4.05294 1.30489L11.5981 1.29701V4.08595C11.5981 4.90057 12.259 5.56216 13.0743 5.56216L15.8063 5.55432L15.8371 17.8713C15.8371 18.3263 15.4677 18.6964 15.0134 18.6964ZM6.22053 15.34V11.7965C6.52023 11.7488 6.91087 11.722 7.32311 11.722C8.00823 11.722 8.45249 11.8449 8.80061 12.1071C9.17523 12.3856 9.41056 12.8295 9.41056 13.4669C9.41056 14.1573 9.15918 14.6339 8.81102 14.928C8.43117 15.2438 7.85296 15.3935 7.14657 15.3935C6.72354 15.3935 6.42383 15.3667 6.22053 15.34ZM12.0623 13.242V13.9056H10.7668V15.3563H9.94795V11.7488H12.1531V12.4176H10.7668V13.242H12.0623Z" fill="white"/>
</svg>
