<svg width="28" height="28" viewBox="0 0 28 28" fill="none" xmlns="http://www.w3.org/2000/svg">
<path d="M20.125 12.25C21.5742 12.25 22.75 11.0742 22.75 9.625C22.75 8.17578 21.5742 7 20.125 7C18.6758 7 17.5 8.17578 17.5 9.625C17.5 11.0742 18.6758 12.25 20.125 12.25Z" fill="white"/>
<path d="M24.7188 3.5H3.28125C2.42812 3.5 1.75 4.19453 1.75 5.04766V22.9523C1.75 23.8055 2.42812 24.5 3.28125 24.5H24.7188C25.5719 24.5 26.25 23.8055 26.25 22.9523V5.04766C26.25 4.19453 25.5719 3.5 24.7188 3.5ZM19.0805 14.3117C18.9164 14.1203 18.6648 13.9727 18.3805 13.9727C18.1016 13.9727 17.9047 14.1039 17.6805 14.2844L16.6578 15.1484C16.4445 15.3016 16.275 15.4055 16.0289 15.4055C15.7938 15.4055 15.5805 15.318 15.4273 15.1813C15.3727 15.132 15.2742 15.0391 15.1922 14.957L12.25 11.7742C12.0312 11.5227 11.7031 11.3641 11.3367 11.3641C10.9703 11.3641 10.6313 11.5445 10.418 11.7906L3.5 20.1359V5.88984C3.55469 5.51797 3.84453 5.25 4.21641 5.25H23.7781C24.1555 5.25 24.4617 5.52891 24.4836 5.90625L24.5 20.1469L19.0805 14.3117Z" fill="white"/>
</svg>
